<?xml version="1.0" standalone="no"?>
 <!DOCTYPE svg PUBLIC "-//W3C//DTD SVG 1.1//EN" 
 "http://www.w3.org/Graphics/SVG/1.1/DTD/svg11.dtd"> 
<svg xmlns="http://www.w3.org/2000/svg" version="1.1" 
    width="5.73532cm" height="14.4628cm" viewBox="0 0 22580 56940 ">
<title>SVG Picture created as CPLD.svg date 2016/04/24 21:50:23 </title>
  <desc>Picture generated by Eeschema-SVG </desc>
<g style="fill:#000000; fill-opacity:1;stroke:#000000; stroke-opacity:1;
stroke-linecap:round; stroke-linejoin:round; "
 transform="translate(0 0) scale(1 1)">
</g>
<g style="fill:#000000; fill-opacity:0.0; 
stroke:#000000; stroke-width:-10; stroke-opacity:1; 
stroke-linecap:round; stroke-linejoin:round;">
</g>
<g style="fill:#000000; fill-opacity:0.0; 
stroke:#000000; stroke-width:60; stroke-opacity:1; 
stroke-linecap:round; stroke-linejoin:round;">
<rect x="3790" y="8970" width="14500" height="45000" rx="0" />
<path d="M3790 9970
L1790 9970
" />
<path d="M4570 9720
L4520 9700
L4450 9700
L4380 9720
L4330 9770
L4310 9820
L4290 9910
L4290 9980
L4310 10080
L4330 10120
L4380 10170
L4450 10200
L4500 10200
L4570 10170
L4590 10150
L4590 9980
L4500 9980
" />
<path d="M4810 10200
L4810 9700
L5090 10200
L5090 9700
" />
<path d="M5330 10200
L5330 9700
L5450 9700
L5520 9720
L5570 9770
L5590 9820
L5610 9910
L5610 9980
L5590 10080
L5570 10120
L5520 10170
L5450 10200
L5330 10200
" />
<path d="M2930 9850
L2650 9850
" />
<path d="M2790 9850
L2790 9350
L2740 9420
L2690 9470
L2650 9490
" />
<path d="M3790 10970
L1790 10970
" />
<path d="M4570 10720
L4520 10700
L4450 10700
L4380 10720
L4330 10770
L4310 10820
L4290 10910
L4290 10980
L4310 11080
L4330 11120
L4380 11170
L4450 11200
L4500 11200
L4570 11170
L4590 11150
L4590 10980
L4500 10980
" />
<path d="M4810 11200
L4810 10700
L5090 11200
L5090 10700
" />
<path d="M5330 11200
L5330 10700
L5450 10700
L5520 10720
L5570 10770
L5590 10820
L5610 10910
L5610 10980
L5590 11080
L5570 11120
L5520 11170
L5450 11200
L5330 11200
" />
<path d="M2650 10390
L2670 10370
L2720 10350
L2840 10350
L2880 10370
L2910 10390
L2930 10440
L2930 10490
L2910 10560
L2620 10850
L2930 10850
" />
<path d="M3790 11970
L1790 11970
" />
<path d="M4570 11720
L4520 11700
L4450 11700
L4380 11720
L4330 11770
L4310 11820
L4290 11910
L4290 11980
L4310 12080
L4330 12120
L4380 12170
L4450 12200
L4500 12200
L4570 12170
L4590 12150
L4590 11980
L4500 11980
" />
<path d="M4760 11700
L5090 11700
L4880 12200
" />
<path d="M5500 11860
L5500 12200
" />
<path d="M5380 11670
L5270 12030
L5570 12030
" />
<path d="M2620 11350
L2930 11350
L2760 11540
L2840 11540
L2880 11560
L2910 11580
L2930 11630
L2930 11750
L2910 11800
L2880 11820
L2840 11850
L2690 11850
L2650 11820
L2620 11800
" />
<path d="M3790 12970
L1790 12970
" />
<path d="M4570 12720
L4520 12700
L4450 12700
L4380 12720
L4330 12770
L4310 12820
L4290 12910
L4290 12980
L4310 13080
L4330 13120
L4380 13170
L4450 13200
L4500 13200
L4570 13170
L4590 13150
L4590 12980
L4500 12980
" />
<path d="M4760 12700
L5090 12700
L4880 13200
" />
<path d="M5530 12700
L5290 12700
L5270 12930
L5290 12910
L5340 12890
L5460 12890
L5500 12910
L5530 12930
L5550 12980
L5550 13100
L5530 13150
L5500 13170
L5460 13200
L5340 13200
L5290 13170
L5270 13150
" />
<path d="M2880 12510
L2880 12850
" />
<path d="M2760 12320
L2650 12680
L2950 12680
" />
<path d="M3790 13970
L1790 13970
" />
<path d="M4570 13720
L4520 13700
L4450 13700
L4380 13720
L4330 13770
L4310 13820
L4290 13910
L4290 13980
L4310 14080
L4330 14120
L4380 14170
L4450 14200
L4500 14200
L4570 14170
L4590 14150
L4590 13980
L4500 13980
" />
<path d="M4760 13700
L5090 13700
L4880 14200
" />
<path d="M5500 13700
L5410 13700
L5360 13720
L5340 13740
L5290 13820
L5270 13910
L5270 14100
L5290 14150
L5310 14170
L5360 14200
L5460 14200
L5500 14170
L5530 14150
L5550 14100
L5550 13980
L5530 13930
L5500 13910
L5460 13890
L5360 13890
L5310 13910
L5290 13930
L5270 13980
" />
<path d="M2910 13350
L2670 13350
L2650 13580
L2670 13560
L2720 13540
L2840 13540
L2880 13560
L2910 13580
L2930 13630
L2930 13750
L2910 13800
L2880 13820
L2840 13850
L2720 13850
L2670 13820
L2650 13800
" />
<path d="M3790 14970
L1790 14970
" />
<path d="M4570 14720
L4520 14700
L4450 14700
L4380 14720
L4330 14770
L4310 14820
L4290 14910
L4290 14980
L4310 15080
L4330 15120
L4380 15170
L4450 15200
L4500 15200
L4570 15170
L4590 15150
L4590 14980
L4500 14980
" />
<path d="M4760 14700
L5090 14700
L4880 15200
" />
<path d="M5240 14700
L5570 14700
L5360 15200
" />
<path d="M2880 14350
L2790 14350
L2740 14370
L2720 14390
L2670 14470
L2650 14560
L2650 14750
L2670 14800
L2690 14820
L2740 14850
L2840 14850
L2880 14820
L2910 14800
L2930 14750
L2930 14630
L2910 14580
L2880 14560
L2840 14540
L2740 14540
L2690 14560
L2670 14580
L2650 14630
" />
<path d="M3790 15970
L1790 15970
" />
<path d="M4570 15720
L4520 15700
L4450 15700
L4380 15720
L4330 15770
L4310 15820
L4290 15910
L4290 15980
L4310 16080
L4330 16120
L4380 16170
L4450 16200
L4500 16200
L4570 16170
L4590 16150
L4590 15980
L4500 15980
" />
<path d="M4760 15700
L5090 15700
L4880 16200
" />
<path d="M5360 15910
L5310 15890
L5290 15860
L5270 15820
L5270 15790
L5290 15740
L5310 15720
L5360 15700
L5460 15700
L5500 15720
L5530 15740
L5550 15790
L5550 15820
L5530 15860
L5500 15890
L5460 15910
L5360 15910
L5310 15930
L5290 15960
L5270 16010
L5270 16100
L5290 16150
L5310 16170
L5360 16200
L5460 16200
L5500 16170
L5530 16150
L5550 16100
L5550 16010
L5530 15960
L5500 15930
L5460 15910
" />
<path d="M2620 15350
L2950 15350
L2740 15850
" />
<path d="M3790 16970
L1790 16970
" />
<path d="M4570 16720
L4520 16700
L4450 16700
L4380 16720
L4330 16770
L4310 16820
L4290 16910
L4290 16980
L4310 17080
L4330 17120
L4380 17170
L4450 17200
L4500 17200
L4570 17170
L4590 17150
L4590 16980
L4500 16980
" />
<path d="M4880 16910
L4830 16890
L4810 16860
L4790 16820
L4790 16790
L4810 16740
L4830 16720
L4880 16700
L4980 16700
L5020 16720
L5050 16740
L5070 16790
L5070 16820
L5050 16860
L5020 16890
L4980 16910
L4880 16910
L4830 16930
L4810 16960
L4790 17010
L4790 17100
L4810 17150
L4830 17170
L4880 17200
L4980 17200
L5020 17170
L5050 17150
L5070 17100
L5070 17010
L5050 16960
L5020 16930
L4980 16910
" />
<path d="M5550 17200
L5270 17200
" />
<path d="M5410 17200
L5410 16700
L5360 16770
L5310 16820
L5270 16840
" />
<path d="M2740 16560
L2690 16540
L2670 16510
L2650 16470
L2650 16440
L2670 16390
L2690 16370
L2740 16350
L2840 16350
L2880 16370
L2910 16390
L2930 16440
L2930 16470
L2910 16510
L2880 16540
L2840 16560
L2740 16560
L2690 16580
L2670 16610
L2650 16660
L2650 16750
L2670 16800
L2690 16820
L2740 16850
L2840 16850
L2880 16820
L2910 16800
L2930 16750
L2930 16660
L2910 16610
L2880 16580
L2840 16560
" />
<path d="M3790 17970
L1790 17970
" />
<path d="M4570 17720
L4520 17700
L4450 17700
L4380 17720
L4330 17770
L4310 17820
L4290 17910
L4290 17980
L4310 18080
L4330 18120
L4380 18170
L4450 18200
L4500 18200
L4570 18170
L4590 18150
L4590 17980
L4500 17980
" />
<path d="M4880 17910
L4830 17890
L4810 17860
L4790 17820
L4790 17790
L4810 17740
L4830 17720
L4880 17700
L4980 17700
L5020 17720
L5050 17740
L5070 17790
L5070 17820
L5050 17860
L5020 17890
L4980 17910
L4880 17910
L4830 17930
L4810 17960
L4790 18010
L4790 18100
L4810 18150
L4830 18170
L4880 18200
L4980 18200
L5020 18170
L5050 18150
L5070 18100
L5070 18010
L5050 17960
L5020 17930
L4980 17910
" />
<path d="M5270 17740
L5290 17720
L5340 17700
L5460 17700
L5500 17720
L5530 17740
L5550 17790
L5550 17840
L5530 17910
L5240 18200
L5550 18200
" />
<path d="M2690 17850
L2790 17850
L2840 17820
L2860 17800
L2910 17730
L2930 17630
L2930 17440
L2910 17390
L2880 17370
L2840 17350
L2740 17350
L2690 17370
L2670 17390
L2650 17440
L2650 17560
L2670 17610
L2690 17630
L2740 17660
L2840 17660
L2880 17630
L2910 17610
L2930 17560
" />
<path d="M3790 18970
L1790 18970
" />
<path d="M4570 18720
L4520 18700
L4450 18700
L4380 18720
L4330 18770
L4310 18820
L4290 18910
L4290 18980
L4310 19080
L4330 19120
L4380 19170
L4450 19200
L4500 19200
L4570 19170
L4590 19150
L4590 18980
L4500 18980
" />
<path d="M4880 18910
L4830 18890
L4810 18860
L4790 18820
L4790 18790
L4810 18740
L4830 18720
L4880 18700
L4980 18700
L5020 18720
L5050 18740
L5070 18790
L5070 18820
L5050 18860
L5020 18890
L4980 18910
L4880 18910
L4830 18930
L4810 18960
L4790 19010
L4790 19100
L4810 19150
L4830 19170
L4880 19200
L4980 19200
L5020 19170
L5050 19150
L5070 19100
L5070 19010
L5050 18960
L5020 18930
L4980 18910
" />
<path d="M5240 18700
L5550 18700
L5380 18890
L5460 18890
L5500 18910
L5530 18930
L5550 18980
L5550 19100
L5530 19150
L5500 19170
L5460 19200
L5310 19200
L5270 19170
L5240 19150
" />
<path d="M2690 18850
L2410 18850
" />
<path d="M2550 18850
L2550 18350
L2500 18420
L2450 18470
L2410 18490
" />
<path d="M3000 18350
L3050 18350
L3100 18370
L3120 18390
L3150 18440
L3170 18540
L3170 18660
L3150 18750
L3120 18800
L3100 18820
L3050 18850
L3000 18850
L2960 18820
L2930 18800
L2910 18750
L2890 18660
L2890 18540
L2910 18440
L2930 18390
L2960 18370
L3000 18350
" />
<path d="M3790 28970
L1790 28970
" />
<path d="M4570 28720
L4520 28700
L4450 28700
L4380 28720
L4330 28770
L4310 28820
L4290 28910
L4290 28980
L4310 29080
L4330 29120
L4380 29170
L4450 29200
L4500 29200
L4570 29170
L4590 29150
L4590 28980
L4500 28980
" />
<path d="M4830 29200
L4930 29200
L4980 29170
L5000 29150
L5050 29080
L5070 28980
L5070 28790
L5050 28740
L5020 28720
L4980 28700
L4880 28700
L4830 28720
L4810 28740
L4790 28790
L4790 28910
L4810 28960
L4830 28980
L4880 29010
L4980 29010
L5020 28980
L5050 28960
L5070 28910
" />
<path d="M5530 28700
L5290 28700
L5270 28930
L5290 28910
L5340 28890
L5460 28890
L5500 28910
L5530 28930
L5550 28980
L5550 29100
L5530 29150
L5500 29170
L5460 29200
L5340 29200
L5290 29170
L5270 29150
" />
<path d="M2410 28390
L2430 28370
L2480 28350
L2600 28350
L2640 28370
L2670 28390
L2690 28440
L2690 28490
L2670 28560
L2380 28850
L2690 28850
" />
<path d="M3000 28350
L3050 28350
L3100 28370
L3120 28390
L3150 28440
L3170 28540
L3170 28660
L3150 28750
L3120 28800
L3100 28820
L3050 28850
L3000 28850
L2960 28820
L2930 28800
L2910 28750
L2890 28660
L2890 28540
L2910 28440
L2930 28390
L2960 28370
L3000 28350
" />
<path d="M3790 38970
L1790 38970
" />
<path d="M4570 38720
L4520 38700
L4450 38700
L4380 38720
L4330 38770
L4310 38820
L4290 38910
L4290 38980
L4310 39080
L4330 39120
L4380 39170
L4450 39200
L4500 39200
L4570 39170
L4590 39150
L4590 38980
L4500 38980
" />
<path d="M5050 38700
L4810 38700
L4790 38930
L4810 38910
L4860 38890
L4980 38890
L5020 38910
L5050 38930
L5070 38980
L5070 39100
L5050 39150
L5020 39170
L4980 39200
L4860 39200
L4810 39170
L4790 39150
" />
<path d="M2380 38350
L2690 38350
L2520 38540
L2600 38540
L2640 38560
L2670 38580
L2690 38630
L2690 38750
L2670 38800
L2640 38820
L2600 38850
L2450 38850
L2410 38820
L2380 38800
" />
<path d="M3000 38350
L3050 38350
L3100 38370
L3120 38390
L3150 38440
L3170 38540
L3170 38660
L3150 38750
L3120 38800
L3100 38820
L3050 38850
L3000 38850
L2960 38820
L2930 38800
L2910 38750
L2890 38660
L2890 38540
L2910 38440
L2930 38390
L2960 38370
L3000 38350
" />
<path d="M3790 48970
L1790 48970
" />
<path d="M4570 48720
L4520 48700
L4450 48700
L4380 48720
L4330 48770
L4310 48820
L4290 48910
L4290 48980
L4310 49080
L4330 49120
L4380 49170
L4450 49200
L4500 49200
L4570 49170
L4590 49150
L4590 48980
L4500 48980
" />
<path d="M5070 49200
L4790 49200
" />
<path d="M4930 49200
L4930 48700
L4880 48770
L4830 48820
L4790 48840
" />
<path d="M5310 49200
L5410 49200
L5460 49170
L5480 49150
L5530 49080
L5550 48980
L5550 48790
L5530 48740
L5500 48720
L5460 48700
L5360 48700
L5310 48720
L5290 48740
L5270 48790
L5270 48910
L5290 48960
L5310 48980
L5360 49010
L5460 49010
L5500 48980
L5530 48960
L5550 48910
" />
<path d="M2640 48510
L2640 48850
" />
<path d="M2520 48320
L2410 48680
L2710 48680
" />
<path d="M3000 48350
L3050 48350
L3100 48370
L3120 48390
L3150 48440
L3170 48540
L3170 48660
L3150 48750
L3120 48800
L3100 48820
L3050 48850
L3000 48850
L2960 48820
L2930 48800
L2910 48750
L2890 48660
L2890 48540
L2910 48440
L2930 48390
L2960 48370
L3000 48350
" />
<path d="M18290 47970
L20290 47970
" />
<path d="M16810 47720
L16760 47700
L16690 47700
L16620 47720
L16570 47770
L16550 47820
L16530 47910
L16530 47980
L16550 48080
L16570 48120
L16620 48170
L16690 48200
L16740 48200
L16810 48170
L16830 48150
L16830 47980
L16740 47980
" />
<path d="M17030 47740
L17050 47720
L17100 47700
L17220 47700
L17260 47720
L17290 47740
L17310 47790
L17310 47840
L17290 47910
L17000 48200
L17310 48200
" />
<path d="M17550 48200
L17650 48200
L17700 48170
L17720 48150
L17770 48080
L17790 47980
L17790 47790
L17770 47740
L17740 47720
L17700 47700
L17600 47700
L17550 47720
L17530 47740
L17510 47790
L17510 47910
L17530 47960
L17550 47980
L17600 48010
L17700 48010
L17740 47980
L17770 47960
L17790 47910
" />
<path d="M19170 47350
L18930 47350
L18910 47580
L18930 47560
L18980 47540
L19100 47540
L19140 47560
L19170 47580
L19190 47630
L19190 47750
L19170 47800
L19140 47820
L19100 47850
L18980 47850
L18930 47820
L18910 47800
" />
<path d="M19500 47350
L19550 47350
L19600 47370
L19620 47390
L19650 47440
L19670 47540
L19670 47660
L19650 47750
L19620 47800
L19600 47820
L19550 47850
L19500 47850
L19460 47820
L19430 47800
L19410 47750
L19390 47660
L19390 47540
L19410 47440
L19430 47390
L19460 47370
L19500 47350
" />
<path d="M18290 37970
L20290 37970
" />
<path d="M16810 37720
L16760 37700
L16690 37700
L16620 37720
L16570 37770
L16550 37820
L16530 37910
L16530 37980
L16550 38080
L16570 38120
L16620 38170
L16690 38200
L16740 38200
L16810 38170
L16830 38150
L16830 37980
L16740 37980
" />
<path d="M17260 37860
L17260 38200
" />
<path d="M17140 37670
L17030 38030
L17330 38030
" />
<path d="M17790 38200
L17510 38200
" />
<path d="M17650 38200
L17650 37700
L17600 37770
L17550 37820
L17510 37840
" />
<path d="M19140 37350
L19050 37350
L19000 37370
L18980 37390
L18930 37470
L18910 37560
L18910 37750
L18930 37800
L18950 37820
L19000 37850
L19100 37850
L19140 37820
L19170 37800
L19190 37750
L19190 37630
L19170 37580
L19140 37560
L19100 37540
L19000 37540
L18950 37560
L18930 37580
L18910 37630
" />
<path d="M19500 37350
L19550 37350
L19600 37370
L19620 37390
L19650 37440
L19670 37540
L19670 37660
L19650 37750
L19620 37800
L19600 37820
L19550 37850
L19500 37850
L19460 37820
L19430 37800
L19410 37750
L19390 37660
L19390 37540
L19410 37440
L19430 37390
L19460 37370
L19500 37350
" />
<path d="M18290 27970
L20290 27970
" />
<path d="M16810 27720
L16760 27700
L16690 27700
L16620 27720
L16570 27770
L16550 27820
L16530 27910
L16530 27980
L16550 28080
L16570 28120
L16620 28170
L16690 28200
L16740 28200
L16810 28170
L16830 28150
L16830 27980
L16740 27980
" />
<path d="M17290 27700
L17050 27700
L17030 27930
L17050 27910
L17100 27890
L17220 27890
L17260 27910
L17290 27930
L17310 27980
L17310 28100
L17290 28150
L17260 28170
L17220 28200
L17100 28200
L17050 28170
L17030 28150
" />
<path d="M17480 27700
L17790 27700
L17620 27890
L17700 27890
L17740 27910
L17770 27930
L17790 27980
L17790 28100
L17770 28150
L17740 28170
L17700 28200
L17550 28200
L17510 28170
L17480 28150
" />
<path d="M18880 27350
L19210 27350
L19000 27850
" />
<path d="M19500 27350
L19550 27350
L19600 27370
L19620 27390
L19650 27440
L19670 27540
L19670 27660
L19650 27750
L19620 27800
L19600 27820
L19550 27850
L19500 27850
L19460 27820
L19430 27800
L19410 27750
L19390 27660
L19390 27540
L19410 27440
L19430 27390
L19460 27370
L19500 27350
" />
<path d="M18290 17970
L20290 17970
" />
<path d="M16810 17720
L16760 17700
L16690 17700
L16620 17720
L16570 17770
L16550 17820
L16530 17910
L16530 17980
L16550 18080
L16570 18120
L16620 18170
L16690 18200
L16740 18200
L16810 18170
L16830 18150
L16830 17980
L16740 17980
" />
<path d="M17260 17700
L17170 17700
L17120 17720
L17100 17740
L17050 17820
L17030 17910
L17030 18100
L17050 18150
L17070 18170
L17120 18200
L17220 18200
L17260 18170
L17290 18150
L17310 18100
L17310 17980
L17290 17930
L17260 17910
L17220 17890
L17120 17890
L17070 17910
L17050 17930
L17030 17980
" />
<path d="M17480 17700
L17810 17700
L17600 18200
" />
<path d="M19000 17560
L18950 17540
L18930 17510
L18910 17470
L18910 17440
L18930 17390
L18950 17370
L19000 17350
L19100 17350
L19140 17370
L19170 17390
L19190 17440
L19190 17470
L19170 17510
L19140 17540
L19100 17560
L19000 17560
L18950 17580
L18930 17610
L18910 17660
L18910 17750
L18930 17800
L18950 17820
L19000 17850
L19100 17850
L19140 17820
L19170 17800
L19190 17750
L19190 17660
L19170 17610
L19140 17580
L19100 17560
" />
<path d="M19500 17350
L19550 17350
L19600 17370
L19620 17390
L19650 17440
L19670 17540
L19670 17660
L19650 17750
L19620 17800
L19600 17820
L19550 17850
L19500 17850
L19460 17820
L19430 17800
L19410 17750
L19390 17660
L19390 17540
L19410 17440
L19430 17390
L19460 17370
L19500 17350
" />
<path d="M3790 19970
L1790 19970
" />
<path d="M4570 19720
L4520 19700
L4450 19700
L4380 19720
L4330 19770
L4310 19820
L4290 19910
L4290 19980
L4310 20080
L4330 20120
L4380 20170
L4450 20200
L4500 20200
L4570 20170
L4590 20150
L4590 19980
L4500 19980
" />
<path d="M4880 19910
L4830 19890
L4810 19860
L4790 19820
L4790 19790
L4810 19740
L4830 19720
L4880 19700
L4980 19700
L5020 19720
L5050 19740
L5070 19790
L5070 19820
L5050 19860
L5020 19890
L4980 19910
L4880 19910
L4830 19930
L4810 19960
L4790 20010
L4790 20100
L4810 20150
L4830 20170
L4880 20200
L4980 20200
L5020 20170
L5050 20150
L5070 20100
L5070 20010
L5050 19960
L5020 19930
L4980 19910
" />
<path d="M5500 19860
L5500 20200
" />
<path d="M5380 19670
L5270 20030
L5570 20030
" />
<path d="M2690 19850
L2410 19850
" />
<path d="M2550 19850
L2550 19350
L2500 19420
L2450 19470
L2410 19490
" />
<path d="M3170 19850
L2890 19850
" />
<path d="M3030 19850
L3030 19350
L2980 19420
L2930 19470
L2890 19490
" />
<path d="M3790 29970
L1790 29970
" />
<path d="M4570 29720
L4520 29700
L4450 29700
L4380 29720
L4330 29770
L4310 29820
L4290 29910
L4290 29980
L4310 30080
L4330 30120
L4380 30170
L4450 30200
L4500 30200
L4570 30170
L4590 30150
L4590 29980
L4500 29980
" />
<path d="M4830 30200
L4930 30200
L4980 30170
L5000 30150
L5050 30080
L5070 29980
L5070 29790
L5050 29740
L5020 29720
L4980 29700
L4880 29700
L4830 29720
L4810 29740
L4790 29790
L4790 29910
L4810 29960
L4830 29980
L4880 30010
L4980 30010
L5020 29980
L5050 29960
L5070 29910
" />
<path d="M5500 29700
L5410 29700
L5360 29720
L5340 29740
L5290 29820
L5270 29910
L5270 30100
L5290 30150
L5310 30170
L5360 30200
L5460 30200
L5500 30170
L5530 30150
L5550 30100
L5550 29980
L5530 29930
L5500 29910
L5460 29890
L5360 29890
L5310 29910
L5290 29930
L5270 29980
" />
<path d="M2410 29390
L2430 29370
L2480 29350
L2600 29350
L2640 29370
L2670 29390
L2690 29440
L2690 29490
L2670 29560
L2380 29850
L2690 29850
" />
<path d="M3170 29850
L2890 29850
" />
<path d="M3030 29850
L3030 29350
L2980 29420
L2930 29470
L2890 29490
" />
<path d="M3790 39970
L1790 39970
" />
<path d="M4570 39720
L4520 39700
L4450 39700
L4380 39720
L4330 39770
L4310 39820
L4290 39910
L4290 39980
L4310 40080
L4330 40120
L4380 40170
L4450 40200
L4500 40200
L4570 40170
L4590 40150
L4590 39980
L4500 39980
" />
<path d="M5020 39700
L4930 39700
L4880 39720
L4860 39740
L4810 39820
L4790 39910
L4790 40100
L4810 40150
L4830 40170
L4880 40200
L4980 40200
L5020 40170
L5050 40150
L5070 40100
L5070 39980
L5050 39930
L5020 39910
L4980 39890
L4880 39890
L4830 39910
L4810 39930
L4790 39980
" />
<path d="M2380 39350
L2690 39350
L2520 39540
L2600 39540
L2640 39560
L2670 39580
L2690 39630
L2690 39750
L2670 39800
L2640 39820
L2600 39850
L2450 39850
L2410 39820
L2380 39800
" />
<path d="M3170 39850
L2890 39850
" />
<path d="M3030 39850
L3030 39350
L2980 39420
L2930 39470
L2890 39490
" />
<path d="M3790 49970
L1790 49970
" />
<path d="M4570 49720
L4520 49700
L4450 49700
L4380 49720
L4330 49770
L4310 49820
L4290 49910
L4290 49980
L4310 50080
L4330 50120
L4380 50170
L4450 50200
L4500 50200
L4570 50170
L4590 50150
L4590 49980
L4500 49980
" />
<path d="M4790 49740
L4810 49720
L4860 49700
L4980 49700
L5020 49720
L5050 49740
L5070 49790
L5070 49840
L5050 49910
L4760 50200
L5070 50200
" />
<path d="M5380 49700
L5430 49700
L5480 49720
L5500 49740
L5530 49790
L5550 49890
L5550 50010
L5530 50100
L5500 50150
L5480 50170
L5430 50200
L5380 50200
L5340 50170
L5310 50150
L5290 50100
L5270 50010
L5270 49890
L5290 49790
L5310 49740
L5340 49720
L5380 49700
" />
<path d="M2640 49510
L2640 49850
" />
<path d="M2520 49320
L2410 49680
L2710 49680
" />
<path d="M3170 49850
L2890 49850
" />
<path d="M3030 49850
L3030 49350
L2980 49420
L2930 49470
L2890 49490
" />
<path d="M18290 46970
L20290 46970
" />
<path d="M16810 46720
L16760 46700
L16690 46700
L16620 46720
L16570 46770
L16550 46820
L16530 46910
L16530 46980
L16550 47080
L16570 47120
L16620 47170
L16690 47200
L16740 47200
L16810 47170
L16830 47150
L16830 46980
L16740 46980
" />
<path d="M17000 46700
L17310 46700
L17140 46890
L17220 46890
L17260 46910
L17290 46930
L17310 46980
L17310 47100
L17290 47150
L17260 47170
L17220 47200
L17070 47200
L17030 47170
L17000 47150
" />
<path d="M17620 46700
L17670 46700
L17720 46720
L17740 46740
L17770 46790
L17790 46890
L17790 47010
L17770 47100
L17740 47150
L17720 47170
L17670 47200
L17620 47200
L17580 47170
L17550 47150
L17530 47100
L17510 47010
L17510 46890
L17530 46790
L17550 46740
L17580 46720
L17620 46700
" />
<path d="M19170 46350
L18930 46350
L18910 46580
L18930 46560
L18980 46540
L19100 46540
L19140 46560
L19170 46580
L19190 46630
L19190 46750
L19170 46800
L19140 46820
L19100 46850
L18980 46850
L18930 46820
L18910 46800
" />
<path d="M19670 46850
L19390 46850
" />
<path d="M19530 46850
L19530 46350
L19480 46420
L19430 46470
L19390 46490
" />
<path d="M18290 36970
L20290 36970
" />
<path d="M16810 36720
L16760 36700
L16690 36700
L16620 36720
L16570 36770
L16550 36820
L16530 36910
L16530 36980
L16550 37080
L16570 37120
L16620 37170
L16690 37200
L16740 37200
L16810 37170
L16830 37150
L16830 36980
L16740 36980
" />
<path d="M17260 36860
L17260 37200
" />
<path d="M17140 36670
L17030 37030
L17330 37030
" />
<path d="M17510 36740
L17530 36720
L17580 36700
L17700 36700
L17740 36720
L17770 36740
L17790 36790
L17790 36840
L17770 36910
L17480 37200
L17790 37200
" />
<path d="M19140 36350
L19050 36350
L19000 36370
L18980 36390
L18930 36470
L18910 36560
L18910 36750
L18930 36800
L18950 36820
L19000 36850
L19100 36850
L19140 36820
L19170 36800
L19190 36750
L19190 36630
L19170 36580
L19140 36560
L19100 36540
L19000 36540
L18950 36560
L18930 36580
L18910 36630
" />
<path d="M19670 36850
L19390 36850
" />
<path d="M19530 36850
L19530 36350
L19480 36420
L19430 36470
L19390 36490
" />
<path d="M18290 26970
L20290 26970
" />
<path d="M16810 26720
L16760 26700
L16690 26700
L16620 26720
L16570 26770
L16550 26820
L16530 26910
L16530 26980
L16550 27080
L16570 27120
L16620 27170
L16690 27200
L16740 27200
L16810 27170
L16830 27150
L16830 26980
L16740 26980
" />
<path d="M17290 26700
L17050 26700
L17030 26930
L17050 26910
L17100 26890
L17220 26890
L17260 26910
L17290 26930
L17310 26980
L17310 27100
L17290 27150
L17260 27170
L17220 27200
L17100 27200
L17050 27170
L17030 27150
" />
<path d="M17740 26860
L17740 27200
" />
<path d="M17620 26670
L17510 27030
L17810 27030
" />
<path d="M18880 26350
L19210 26350
L19000 26850
" />
<path d="M19670 26850
L19390 26850
" />
<path d="M19530 26850
L19530 26350
L19480 26420
L19430 26470
L19390 26490
" />
<path d="M18290 16970
L20290 16970
" />
<path d="M16810 16720
L16760 16700
L16690 16700
L16620 16720
L16570 16770
L16550 16820
L16530 16910
L16530 16980
L16550 17080
L16570 17120
L16620 17170
L16690 17200
L16740 17200
L16810 17170
L16830 17150
L16830 16980
L16740 16980
" />
<path d="M17260 16700
L17170 16700
L17120 16720
L17100 16740
L17050 16820
L17030 16910
L17030 17100
L17050 17150
L17070 17170
L17120 17200
L17220 17200
L17260 17170
L17290 17150
L17310 17100
L17310 16980
L17290 16930
L17260 16910
L17220 16890
L17120 16890
L17070 16910
L17050 16930
L17030 16980
" />
<path d="M17600 16910
L17550 16890
L17530 16860
L17510 16820
L17510 16790
L17530 16740
L17550 16720
L17600 16700
L17700 16700
L17740 16720
L17770 16740
L17790 16790
L17790 16820
L17770 16860
L17740 16890
L17700 16910
L17600 16910
L17550 16930
L17530 16960
L17510 17010
L17510 17100
L17530 17150
L17550 17170
L17600 17200
L17700 17200
L17740 17170
L17770 17150
L17790 17100
L17790 17010
L17770 16960
L17740 16930
L17700 16910
" />
<path d="M19000 16560
L18950 16540
L18930 16510
L18910 16470
L18910 16440
L18930 16390
L18950 16370
L19000 16350
L19100 16350
L19140 16370
L19170 16390
L19190 16440
L19190 16470
L19170 16510
L19140 16540
L19100 16560
L19000 16560
L18950 16580
L18930 16610
L18910 16660
L18910 16750
L18930 16800
L18950 16820
L19000 16850
L19100 16850
L19140 16820
L19170 16800
L19190 16750
L19190 16660
L19170 16610
L19140 16580
L19100 16560
" />
<path d="M19670 16850
L19390 16850
" />
<path d="M19530 16850
L19530 16350
L19480 16420
L19430 16470
L19390 16490
" />
<path d="M3790 20970
L1790 20970
" />
<path d="M4570 20720
L4520 20700
L4450 20700
L4380 20720
L4330 20770
L4310 20820
L4290 20910
L4290 20980
L4310 21080
L4330 21120
L4380 21170
L4450 21200
L4500 21200
L4570 21170
L4590 21150
L4590 20980
L4500 20980
" />
<path d="M4880 20910
L4830 20890
L4810 20860
L4790 20820
L4790 20790
L4810 20740
L4830 20720
L4880 20700
L4980 20700
L5020 20720
L5050 20740
L5070 20790
L5070 20820
L5050 20860
L5020 20890
L4980 20910
L4880 20910
L4830 20930
L4810 20960
L4790 21010
L4790 21100
L4810 21150
L4830 21170
L4880 21200
L4980 21200
L5020 21170
L5050 21150
L5070 21100
L5070 21010
L5050 20960
L5020 20930
L4980 20910
" />
<path d="M5530 20700
L5290 20700
L5270 20930
L5290 20910
L5340 20890
L5460 20890
L5500 20910
L5530 20930
L5550 20980
L5550 21100
L5530 21150
L5500 21170
L5460 21200
L5340 21200
L5290 21170
L5270 21150
" />
<path d="M2690 20850
L2410 20850
" />
<path d="M2550 20850
L2550 20350
L2500 20420
L2450 20470
L2410 20490
" />
<path d="M2890 20390
L2910 20370
L2960 20350
L3080 20350
L3120 20370
L3150 20390
L3170 20440
L3170 20490
L3150 20560
L2860 20850
L3170 20850
" />
<path d="M3790 30970
L1790 30970
" />
<path d="M4570 30720
L4520 30700
L4450 30700
L4380 30720
L4330 30770
L4310 30820
L4290 30910
L4290 30980
L4310 31080
L4330 31120
L4380 31170
L4450 31200
L4500 31200
L4570 31170
L4590 31150
L4590 30980
L4500 30980
" />
<path d="M4830 31200
L4930 31200
L4980 31170
L5000 31150
L5050 31080
L5070 30980
L5070 30790
L5050 30740
L5020 30720
L4980 30700
L4880 30700
L4830 30720
L4810 30740
L4790 30790
L4790 30910
L4810 30960
L4830 30980
L4880 31010
L4980 31010
L5020 30980
L5050 30960
L5070 30910
" />
<path d="M5240 30700
L5570 30700
L5360 31200
" />
<path d="M2410 30390
L2430 30370
L2480 30350
L2600 30350
L2640 30370
L2670 30390
L2690 30440
L2690 30490
L2670 30560
L2380 30850
L2690 30850
" />
<path d="M2890 30390
L2910 30370
L2960 30350
L3080 30350
L3120 30370
L3150 30390
L3170 30440
L3170 30490
L3150 30560
L2860 30850
L3170 30850
" />
<path d="M3790 40970
L1790 40970
" />
<path d="M4570 40720
L4520 40700
L4450 40700
L4380 40720
L4330 40770
L4310 40820
L4290 40910
L4290 40980
L4310 41080
L4330 41120
L4380 41170
L4450 41200
L4500 41200
L4570 41170
L4590 41150
L4590 40980
L4500 40980
" />
<path d="M4760 40700
L5090 40700
L4880 41200
" />
<path d="M2380 40350
L2690 40350
L2520 40540
L2600 40540
L2640 40560
L2670 40580
L2690 40630
L2690 40750
L2670 40800
L2640 40820
L2600 40850
L2450 40850
L2410 40820
L2380 40800
" />
<path d="M2890 40390
L2910 40370
L2960 40350
L3080 40350
L3120 40370
L3150 40390
L3170 40440
L3170 40490
L3150 40560
L2860 40850
L3170 40850
" />
<path d="M3790 50970
L1790 50970
" />
<path d="M4570 50720
L4520 50700
L4450 50700
L4380 50720
L4330 50770
L4310 50820
L4290 50910
L4290 50980
L4310 51080
L4330 51120
L4380 51170
L4450 51200
L4500 51200
L4570 51170
L4590 51150
L4590 50980
L4500 50980
" />
<path d="M4790 50740
L4810 50720
L4860 50700
L4980 50700
L5020 50720
L5050 50740
L5070 50790
L5070 50840
L5050 50910
L4760 51200
L5070 51200
" />
<path d="M5550 51200
L5270 51200
" />
<path d="M5410 51200
L5410 50700
L5360 50770
L5310 50820
L5270 50840
" />
<path d="M2640 50510
L2640 50850
" />
<path d="M2520 50320
L2410 50680
L2710 50680
" />
<path d="M2890 50390
L2910 50370
L2960 50350
L3080 50350
L3120 50370
L3150 50390
L3170 50440
L3170 50490
L3150 50560
L2860 50850
L3170 50850
" />
<path d="M18290 45970
L20290 45970
" />
<path d="M16810 45720
L16760 45700
L16690 45700
L16620 45720
L16570 45770
L16550 45820
L16530 45910
L16530 45980
L16550 46080
L16570 46120
L16620 46170
L16690 46200
L16740 46200
L16810 46170
L16830 46150
L16830 45980
L16740 45980
" />
<path d="M17000 45700
L17310 45700
L17140 45890
L17220 45890
L17260 45910
L17290 45930
L17310 45980
L17310 46100
L17290 46150
L17260 46170
L17220 46200
L17070 46200
L17030 46170
L17000 46150
" />
<path d="M17480 45700
L17790 45700
L17620 45890
L17700 45890
L17740 45910
L17770 45930
L17790 45980
L17790 46100
L17770 46150
L17740 46170
L17700 46200
L17550 46200
L17510 46170
L17480 46150
" />
<path d="M19170 45350
L18930 45350
L18910 45580
L18930 45560
L18980 45540
L19100 45540
L19140 45560
L19170 45580
L19190 45630
L19190 45750
L19170 45800
L19140 45820
L19100 45850
L18980 45850
L18930 45820
L18910 45800
" />
<path d="M19390 45390
L19410 45370
L19460 45350
L19580 45350
L19620 45370
L19650 45390
L19670 45440
L19670 45490
L19650 45560
L19360 45850
L19670 45850
" />
<path d="M18290 35970
L20290 35970
" />
<path d="M16810 35720
L16760 35700
L16690 35700
L16620 35720
L16570 35770
L16550 35820
L16530 35910
L16530 35980
L16550 36080
L16570 36120
L16620 36170
L16690 36200
L16740 36200
L16810 36170
L16830 36150
L16830 35980
L16740 35980
" />
<path d="M17260 35860
L17260 36200
" />
<path d="M17140 35670
L17030 36030
L17330 36030
" />
<path d="M17480 35700
L17790 35700
L17620 35890
L17700 35890
L17740 35910
L17770 35930
L17790 35980
L17790 36100
L17770 36150
L17740 36170
L17700 36200
L17550 36200
L17510 36170
L17480 36150
" />
<path d="M19140 35350
L19050 35350
L19000 35370
L18980 35390
L18930 35470
L18910 35560
L18910 35750
L18930 35800
L18950 35820
L19000 35850
L19100 35850
L19140 35820
L19170 35800
L19190 35750
L19190 35630
L19170 35580
L19140 35560
L19100 35540
L19000 35540
L18950 35560
L18930 35580
L18910 35630
" />
<path d="M19390 35390
L19410 35370
L19460 35350
L19580 35350
L19620 35370
L19650 35390
L19670 35440
L19670 35490
L19650 35560
L19360 35850
L19670 35850
" />
<path d="M18290 25970
L20290 25970
" />
<path d="M16810 25720
L16760 25700
L16690 25700
L16620 25720
L16570 25770
L16550 25820
L16530 25910
L16530 25980
L16550 26080
L16570 26120
L16620 26170
L16690 26200
L16740 26200
L16810 26170
L16830 26150
L16830 25980
L16740 25980
" />
<path d="M17290 25700
L17050 25700
L17030 25930
L17050 25910
L17100 25890
L17220 25890
L17260 25910
L17290 25930
L17310 25980
L17310 26100
L17290 26150
L17260 26170
L17220 26200
L17100 26200
L17050 26170
L17030 26150
" />
<path d="M17770 25700
L17530 25700
L17510 25930
L17530 25910
L17580 25890
L17700 25890
L17740 25910
L17770 25930
L17790 25980
L17790 26100
L17770 26150
L17740 26170
L17700 26200
L17580 26200
L17530 26170
L17510 26150
" />
<path d="M18880 25350
L19210 25350
L19000 25850
" />
<path d="M19390 25390
L19410 25370
L19460 25350
L19580 25350
L19620 25370
L19650 25390
L19670 25440
L19670 25490
L19650 25560
L19360 25850
L19670 25850
" />
<path d="M18290 15970
L20290 15970
" />
<path d="M16810 15720
L16760 15700
L16690 15700
L16620 15720
L16570 15770
L16550 15820
L16530 15910
L16530 15980
L16550 16080
L16570 16120
L16620 16170
L16690 16200
L16740 16200
L16810 16170
L16830 16150
L16830 15980
L16740 15980
" />
<path d="M17260 15700
L17170 15700
L17120 15720
L17100 15740
L17050 15820
L17030 15910
L17030 16100
L17050 16150
L17070 16170
L17120 16200
L17220 16200
L17260 16170
L17290 16150
L17310 16100
L17310 15980
L17290 15930
L17260 15910
L17220 15890
L17120 15890
L17070 15910
L17050 15930
L17030 15980
" />
<path d="M17550 16200
L17650 16200
L17700 16170
L17720 16150
L17770 16080
L17790 15980
L17790 15790
L17770 15740
L17740 15720
L17700 15700
L17600 15700
L17550 15720
L17530 15740
L17510 15790
L17510 15910
L17530 15960
L17550 15980
L17600 16010
L17700 16010
L17740 15980
L17770 15960
L17790 15910
" />
<path d="M19000 15560
L18950 15540
L18930 15510
L18910 15470
L18910 15440
L18930 15390
L18950 15370
L19000 15350
L19100 15350
L19140 15370
L19170 15390
L19190 15440
L19190 15470
L19170 15510
L19140 15540
L19100 15560
L19000 15560
L18950 15580
L18930 15610
L18910 15660
L18910 15750
L18930 15800
L18950 15820
L19000 15850
L19100 15850
L19140 15820
L19170 15800
L19190 15750
L19190 15660
L19170 15610
L19140 15580
L19100 15560
" />
<path d="M19390 15390
L19410 15370
L19460 15350
L19580 15350
L19620 15370
L19650 15390
L19670 15440
L19670 15490
L19650 15560
L19360 15850
L19670 15850
" />
<path d="M3790 21970
L1790 21970
" />
<path d="M4570 21720
L4520 21700
L4450 21700
L4380 21720
L4330 21770
L4310 21820
L4290 21910
L4290 21980
L4310 22080
L4330 22120
L4380 22170
L4450 22200
L4500 22200
L4570 22170
L4590 22150
L4590 21980
L4500 21980
" />
<path d="M4880 21910
L4830 21890
L4810 21860
L4790 21820
L4790 21790
L4810 21740
L4830 21720
L4880 21700
L4980 21700
L5020 21720
L5050 21740
L5070 21790
L5070 21820
L5050 21860
L5020 21890
L4980 21910
L4880 21910
L4830 21930
L4810 21960
L4790 22010
L4790 22100
L4810 22150
L4830 22170
L4880 22200
L4980 22200
L5020 22170
L5050 22150
L5070 22100
L5070 22010
L5050 21960
L5020 21930
L4980 21910
" />
<path d="M5500 21700
L5410 21700
L5360 21720
L5340 21740
L5290 21820
L5270 21910
L5270 22100
L5290 22150
L5310 22170
L5360 22200
L5460 22200
L5500 22170
L5530 22150
L5550 22100
L5550 21980
L5530 21930
L5500 21910
L5460 21890
L5360 21890
L5310 21910
L5290 21930
L5270 21980
" />
<path d="M2690 21850
L2410 21850
" />
<path d="M2550 21850
L2550 21350
L2500 21420
L2450 21470
L2410 21490
" />
<path d="M2860 21350
L3170 21350
L3000 21540
L3080 21540
L3120 21560
L3150 21580
L3170 21630
L3170 21750
L3150 21800
L3120 21820
L3080 21850
L2930 21850
L2890 21820
L2860 21800
" />
<path d="M3790 31970
L1790 31970
" />
<path d="M4570 31720
L4520 31700
L4450 31700
L4380 31720
L4330 31770
L4310 31820
L4290 31910
L4290 31980
L4310 32080
L4330 32120
L4380 32170
L4450 32200
L4500 32200
L4570 32170
L4590 32150
L4590 31980
L4500 31980
" />
<path d="M4830 32200
L4930 32200
L4980 32170
L5000 32150
L5050 32080
L5070 31980
L5070 31790
L5050 31740
L5020 31720
L4980 31700
L4880 31700
L4830 31720
L4810 31740
L4790 31790
L4790 31910
L4810 31960
L4830 31980
L4880 32010
L4980 32010
L5020 31980
L5050 31960
L5070 31910
" />
<path d="M5360 31910
L5310 31890
L5290 31860
L5270 31820
L5270 31790
L5290 31740
L5310 31720
L5360 31700
L5460 31700
L5500 31720
L5530 31740
L5550 31790
L5550 31820
L5530 31860
L5500 31890
L5460 31910
L5360 31910
L5310 31930
L5290 31960
L5270 32010
L5270 32100
L5290 32150
L5310 32170
L5360 32200
L5460 32200
L5500 32170
L5530 32150
L5550 32100
L5550 32010
L5530 31960
L5500 31930
L5460 31910
" />
<path d="M2410 31390
L2430 31370
L2480 31350
L2600 31350
L2640 31370
L2670 31390
L2690 31440
L2690 31490
L2670 31560
L2380 31850
L2690 31850
" />
<path d="M2860 31350
L3170 31350
L3000 31540
L3080 31540
L3120 31560
L3150 31580
L3170 31630
L3170 31750
L3150 31800
L3120 31820
L3080 31850
L2930 31850
L2890 31820
L2860 31800
" />
<path d="M3790 41970
L1790 41970
" />
<path d="M4570 41720
L4520 41700
L4450 41700
L4380 41720
L4330 41770
L4310 41820
L4290 41910
L4290 41980
L4310 42080
L4330 42120
L4380 42170
L4450 42200
L4500 42200
L4570 42170
L4590 42150
L4590 41980
L4500 41980
" />
<path d="M4880 41910
L4830 41890
L4810 41860
L4790 41820
L4790 41790
L4810 41740
L4830 41720
L4880 41700
L4980 41700
L5020 41720
L5050 41740
L5070 41790
L5070 41820
L5050 41860
L5020 41890
L4980 41910
L4880 41910
L4830 41930
L4810 41960
L4790 42010
L4790 42100
L4810 42150
L4830 42170
L4880 42200
L4980 42200
L5020 42170
L5050 42150
L5070 42100
L5070 42010
L5050 41960
L5020 41930
L4980 41910
" />
<path d="M2380 41350
L2690 41350
L2520 41540
L2600 41540
L2640 41560
L2670 41580
L2690 41630
L2690 41750
L2670 41800
L2640 41820
L2600 41850
L2450 41850
L2410 41820
L2380 41800
" />
<path d="M2860 41350
L3170 41350
L3000 41540
L3080 41540
L3120 41560
L3150 41580
L3170 41630
L3170 41750
L3150 41800
L3120 41820
L3080 41850
L2930 41850
L2890 41820
L2860 41800
" />
<path d="M3790 51970
L1790 51970
" />
<path d="M4240 51700
L4400 52200
L4570 51700
" />
<path d="M5020 52150
L5000 52170
L4930 52200
L4880 52200
L4810 52170
L4760 52120
L4740 52080
L4720 51980
L4720 51910
L4740 51820
L4760 51770
L4810 51720
L4880 51700
L4930 51700
L5000 51720
L5020 51740
" />
<path d="M5520 52150
L5500 52170
L5430 52200
L5380 52200
L5310 52170
L5260 52120
L5240 52080
L5220 51980
L5220 51910
L5240 51820
L5260 51770
L5310 51720
L5380 51700
L5430 51700
L5500 51720
L5520 51740
" />
<path d="M2640 51510
L2640 51850
" />
<path d="M2520 51320
L2410 51680
L2710 51680
" />
<path d="M2860 51350
L3170 51350
L3000 51540
L3080 51540
L3120 51560
L3150 51580
L3170 51630
L3170 51750
L3150 51800
L3120 51820
L3080 51850
L2930 51850
L2890 51820
L2860 51800
" />
<path d="M18290 44970
L20290 44970
" />
<path d="M16810 44720
L16760 44700
L16690 44700
L16620 44720
L16570 44770
L16550 44820
L16530 44910
L16530 44980
L16550 45080
L16570 45120
L16620 45170
L16690 45200
L16740 45200
L16810 45170
L16830 45150
L16830 44980
L16740 44980
" />
<path d="M17000 44700
L17310 44700
L17140 44890
L17220 44890
L17260 44910
L17290 44930
L17310 44980
L17310 45100
L17290 45150
L17260 45170
L17220 45200
L17070 45200
L17030 45170
L17000 45150
" />
<path d="M17740 44860
L17740 45200
" />
<path d="M17620 44670
L17510 45030
L17810 45030
" />
<path d="M19170 44350
L18930 44350
L18910 44580
L18930 44560
L18980 44540
L19100 44540
L19140 44560
L19170 44580
L19190 44630
L19190 44750
L19170 44800
L19140 44820
L19100 44850
L18980 44850
L18930 44820
L18910 44800
" />
<path d="M19360 44350
L19670 44350
L19500 44540
L19580 44540
L19620 44560
L19650 44580
L19670 44630
L19670 44750
L19650 44800
L19620 44820
L19580 44850
L19430 44850
L19390 44820
L19360 44800
" />
<path d="M18290 34970
L20290 34970
" />
<path d="M16810 34720
L16760 34700
L16690 34700
L16620 34720
L16570 34770
L16550 34820
L16530 34910
L16530 34980
L16550 35080
L16570 35120
L16620 35170
L16690 35200
L16740 35200
L16810 35170
L16830 35150
L16830 34980
L16740 34980
" />
<path d="M17260 34860
L17260 35200
" />
<path d="M17140 34670
L17030 35030
L17330 35030
" />
<path d="M17740 34860
L17740 35200
" />
<path d="M17620 34670
L17510 35030
L17810 35030
" />
<path d="M19140 34350
L19050 34350
L19000 34370
L18980 34390
L18930 34470
L18910 34560
L18910 34750
L18930 34800
L18950 34820
L19000 34850
L19100 34850
L19140 34820
L19170 34800
L19190 34750
L19190 34630
L19170 34580
L19140 34560
L19100 34540
L19000 34540
L18950 34560
L18930 34580
L18910 34630
" />
<path d="M19360 34350
L19670 34350
L19500 34540
L19580 34540
L19620 34560
L19650 34580
L19670 34630
L19670 34750
L19650 34800
L19620 34820
L19580 34850
L19430 34850
L19390 34820
L19360 34800
" />
<path d="M18290 24970
L20290 24970
" />
<path d="M16810 24720
L16760 24700
L16690 24700
L16620 24720
L16570 24770
L16550 24820
L16530 24910
L16530 24980
L16550 25080
L16570 25120
L16620 25170
L16690 25200
L16740 25200
L16810 25170
L16830 25150
L16830 24980
L16740 24980
" />
<path d="M17290 24700
L17050 24700
L17030 24930
L17050 24910
L17100 24890
L17220 24890
L17260 24910
L17290 24930
L17310 24980
L17310 25100
L17290 25150
L17260 25170
L17220 25200
L17100 25200
L17050 25170
L17030 25150
" />
<path d="M17740 24700
L17650 24700
L17600 24720
L17580 24740
L17530 24820
L17510 24910
L17510 25100
L17530 25150
L17550 25170
L17600 25200
L17700 25200
L17740 25170
L17770 25150
L17790 25100
L17790 24980
L17770 24930
L17740 24910
L17700 24890
L17600 24890
L17550 24910
L17530 24930
L17510 24980
" />
<path d="M18880 24350
L19210 24350
L19000 24850
" />
<path d="M19360 24350
L19670 24350
L19500 24540
L19580 24540
L19620 24560
L19650 24580
L19670 24630
L19670 24750
L19650 24800
L19620 24820
L19580 24850
L19430 24850
L19390 24820
L19360 24800
" />
<path d="M18290 14970
L20290 14970
" />
<path d="M16810 14720
L16760 14700
L16690 14700
L16620 14720
L16570 14770
L16550 14820
L16530 14910
L16530 14980
L16550 15080
L16570 15120
L16620 15170
L16690 15200
L16740 15200
L16810 15170
L16830 15150
L16830 14980
L16740 14980
" />
<path d="M17000 14700
L17330 14700
L17120 15200
" />
<path d="M17620 14700
L17670 14700
L17720 14720
L17740 14740
L17770 14790
L17790 14890
L17790 15010
L17770 15100
L17740 15150
L17720 15170
L17670 15200
L17620 15200
L17580 15170
L17550 15150
L17530 15100
L17510 15010
L17510 14890
L17530 14790
L17550 14740
L17580 14720
L17620 14700
" />
<path d="M19000 14560
L18950 14540
L18930 14510
L18910 14470
L18910 14440
L18930 14390
L18950 14370
L19000 14350
L19100 14350
L19140 14370
L19170 14390
L19190 14440
L19190 14470
L19170 14510
L19140 14540
L19100 14560
L19000 14560
L18950 14580
L18930 14610
L18910 14660
L18910 14750
L18930 14800
L18950 14820
L19000 14850
L19100 14850
L19140 14820
L19170 14800
L19190 14750
L19190 14660
L19170 14610
L19140 14580
L19100 14560
" />
<path d="M19360 14350
L19670 14350
L19500 14540
L19580 14540
L19620 14560
L19650 14580
L19670 14630
L19670 14750
L19650 14800
L19620 14820
L19580 14850
L19430 14850
L19390 14820
L19360 14800
" />
<path d="M3790 22970
L1790 22970
" />
<path d="M4570 22720
L4520 22700
L4450 22700
L4380 22720
L4330 22770
L4310 22820
L4290 22910
L4290 22980
L4310 23080
L4330 23120
L4380 23170
L4450 23200
L4500 23200
L4570 23170
L4590 23150
L4590 22980
L4500 22980
" />
<path d="M4880 22910
L4830 22890
L4810 22860
L4790 22820
L4790 22790
L4810 22740
L4830 22720
L4880 22700
L4980 22700
L5020 22720
L5050 22740
L5070 22790
L5070 22820
L5050 22860
L5020 22890
L4980 22910
L4880 22910
L4830 22930
L4810 22960
L4790 23010
L4790 23100
L4810 23150
L4830 23170
L4880 23200
L4980 23200
L5020 23170
L5050 23150
L5070 23100
L5070 23010
L5050 22960
L5020 22930
L4980 22910
" />
<path d="M5240 22700
L5570 22700
L5360 23200
" />
<path d="M2690 22850
L2410 22850
" />
<path d="M2550 22850
L2550 22350
L2500 22420
L2450 22470
L2410 22490
" />
<path d="M3120 22510
L3120 22850
" />
<path d="M3000 22320
L2890 22680
L3190 22680
" />
<path d="M3790 32970
L1790 32970
" />
<path d="M4570 32720
L4520 32700
L4450 32700
L4380 32720
L4330 32770
L4310 32820
L4290 32910
L4290 32980
L4310 33080
L4330 33120
L4380 33170
L4450 33200
L4500 33200
L4570 33170
L4590 33150
L4590 32980
L4500 32980
" />
<path d="M4830 33200
L4930 33200
L4980 33170
L5000 33150
L5050 33080
L5070 32980
L5070 32790
L5050 32740
L5020 32720
L4980 32700
L4880 32700
L4830 32720
L4810 32740
L4790 32790
L4790 32910
L4810 32960
L4830 32980
L4880 33010
L4980 33010
L5020 32980
L5050 32960
L5070 32910
" />
<path d="M5310 33200
L5410 33200
L5460 33170
L5480 33150
L5530 33080
L5550 32980
L5550 32790
L5530 32740
L5500 32720
L5460 32700
L5360 32700
L5310 32720
L5290 32740
L5270 32790
L5270 32910
L5290 32960
L5310 32980
L5360 33010
L5460 33010
L5500 32980
L5530 32960
L5550 32910
" />
<path d="M2410 32390
L2430 32370
L2480 32350
L2600 32350
L2640 32370
L2670 32390
L2690 32440
L2690 32490
L2670 32560
L2380 32850
L2690 32850
" />
<path d="M3120 32510
L3120 32850
" />
<path d="M3000 32320
L2890 32680
L3190 32680
" />
<path d="M3790 42970
L1790 42970
" />
<path d="M4570 42720
L4520 42700
L4450 42700
L4380 42720
L4330 42770
L4310 42820
L4290 42910
L4290 42980
L4310 43080
L4330 43120
L4380 43170
L4450 43200
L4500 43200
L4570 43170
L4590 43150
L4590 42980
L4500 42980
" />
<path d="M5070 43200
L4790 43200
" />
<path d="M4930 43200
L4930 42700
L4880 42770
L4830 42820
L4790 42840
" />
<path d="M5270 42740
L5290 42720
L5340 42700
L5460 42700
L5500 42720
L5530 42740
L5550 42790
L5550 42840
L5530 42910
L5240 43200
L5550 43200
" />
<path d="M2380 42350
L2690 42350
L2520 42540
L2600 42540
L2640 42560
L2670 42580
L2690 42630
L2690 42750
L2670 42800
L2640 42820
L2600 42850
L2450 42850
L2410 42820
L2380 42800
" />
<path d="M3120 42510
L3120 42850
" />
<path d="M3000 42320
L2890 42680
L3190 42680
" />
<path d="M3790 52970
L1790 52970
" />
<path d="M4570 52720
L4520 52700
L4450 52700
L4380 52720
L4330 52770
L4310 52820
L4290 52910
L4290 52980
L4310 53080
L4330 53120
L4380 53170
L4450 53200
L4500 53200
L4570 53170
L4590 53150
L4590 52980
L4500 52980
" />
<path d="M4810 53200
L4810 52700
L5090 53200
L5090 52700
" />
<path d="M5330 53200
L5330 52700
L5450 52700
L5520 52720
L5570 52770
L5590 52820
L5610 52910
L5610 52980
L5590 53080
L5570 53120
L5520 53170
L5450 53200
L5330 53200
" />
<path d="M2640 52510
L2640 52850
" />
<path d="M2520 52320
L2410 52680
L2710 52680
" />
<path d="M3120 52510
L3120 52850
" />
<path d="M3000 52320
L2890 52680
L3190 52680
" />
<path d="M18290 43970
L20290 43970
" />
<path d="M16810 43720
L16760 43700
L16690 43700
L16620 43720
L16570 43770
L16550 43820
L16530 43910
L16530 43980
L16550 44080
L16570 44120
L16620 44170
L16690 44200
L16740 44200
L16810 44170
L16830 44150
L16830 43980
L16740 43980
" />
<path d="M17000 43700
L17310 43700
L17140 43890
L17220 43890
L17260 43910
L17290 43930
L17310 43980
L17310 44100
L17290 44150
L17260 44170
L17220 44200
L17070 44200
L17030 44170
L17000 44150
" />
<path d="M17770 43700
L17530 43700
L17510 43930
L17530 43910
L17580 43890
L17700 43890
L17740 43910
L17770 43930
L17790 43980
L17790 44100
L17770 44150
L17740 44170
L17700 44200
L17580 44200
L17530 44170
L17510 44150
" />
<path d="M19170 43350
L18930 43350
L18910 43580
L18930 43560
L18980 43540
L19100 43540
L19140 43560
L19170 43580
L19190 43630
L19190 43750
L19170 43800
L19140 43820
L19100 43850
L18980 43850
L18930 43820
L18910 43800
" />
<path d="M19620 43510
L19620 43850
" />
<path d="M19500 43320
L19390 43680
L19690 43680
" />
<path d="M18290 33970
L20290 33970
" />
<path d="M16810 33720
L16760 33700
L16690 33700
L16620 33720
L16570 33770
L16550 33820
L16530 33910
L16530 33980
L16550 34080
L16570 34120
L16620 34170
L16690 34200
L16740 34200
L16810 34170
L16830 34150
L16830 33980
L16740 33980
" />
<path d="M17260 33860
L17260 34200
" />
<path d="M17140 33670
L17030 34030
L17330 34030
" />
<path d="M17480 33700
L17810 33700
L17600 34200
" />
<path d="M19140 33350
L19050 33350
L19000 33370
L18980 33390
L18930 33470
L18910 33560
L18910 33750
L18930 33800
L18950 33820
L19000 33850
L19100 33850
L19140 33820
L19170 33800
L19190 33750
L19190 33630
L19170 33580
L19140 33560
L19100 33540
L19000 33540
L18950 33560
L18930 33580
L18910 33630
" />
<path d="M19620 33510
L19620 33850
" />
<path d="M19500 33320
L19390 33680
L19690 33680
" />
<path d="M18290 23970
L20290 23970
" />
<path d="M16810 23720
L16760 23700
L16690 23700
L16620 23720
L16570 23770
L16550 23820
L16530 23910
L16530 23980
L16550 24080
L16570 24120
L16620 24170
L16690 24200
L16740 24200
L16810 24170
L16830 24150
L16830 23980
L16740 23980
" />
<path d="M17290 23700
L17050 23700
L17030 23930
L17050 23910
L17100 23890
L17220 23890
L17260 23910
L17290 23930
L17310 23980
L17310 24100
L17290 24150
L17260 24170
L17220 24200
L17100 24200
L17050 24170
L17030 24150
" />
<path d="M17480 23700
L17810 23700
L17600 24200
" />
<path d="M18880 23350
L19210 23350
L19000 23850
" />
<path d="M19620 23510
L19620 23850
" />
<path d="M19500 23320
L19390 23680
L19690 23680
" />
<path d="M18290 13970
L20290 13970
" />
<path d="M16810 13720
L16760 13700
L16690 13700
L16620 13720
L16570 13770
L16550 13820
L16530 13910
L16530 13980
L16550 14080
L16570 14120
L16620 14170
L16690 14200
L16740 14200
L16810 14170
L16830 14150
L16830 13980
L16740 13980
" />
<path d="M17000 13700
L17330 13700
L17120 14200
" />
<path d="M17790 14200
L17510 14200
" />
<path d="M17650 14200
L17650 13700
L17600 13770
L17550 13820
L17510 13840
" />
<path d="M19000 13560
L18950 13540
L18930 13510
L18910 13470
L18910 13440
L18930 13390
L18950 13370
L19000 13350
L19100 13350
L19140 13370
L19170 13390
L19190 13440
L19190 13470
L19170 13510
L19140 13540
L19100 13560
L19000 13560
L18950 13580
L18930 13610
L18910 13660
L18910 13750
L18930 13800
L18950 13820
L19000 13850
L19100 13850
L19140 13820
L19170 13800
L19190 13750
L19190 13660
L19170 13610
L19140 13580
L19100 13560
" />
<path d="M19620 13510
L19620 13850
" />
<path d="M19500 13320
L19390 13680
L19690 13680
" />
<path d="M3790 23970
L1790 23970
" />
<path d="M4570 23720
L4520 23700
L4450 23700
L4380 23720
L4330 23770
L4310 23820
L4290 23910
L4290 23980
L4310 24080
L4330 24120
L4380 24170
L4450 24200
L4500 24200
L4570 24170
L4590 24150
L4590 23980
L4500 23980
" />
<path d="M4880 23910
L4830 23890
L4810 23860
L4790 23820
L4790 23790
L4810 23740
L4830 23720
L4880 23700
L4980 23700
L5020 23720
L5050 23740
L5070 23790
L5070 23820
L5050 23860
L5020 23890
L4980 23910
L4880 23910
L4830 23930
L4810 23960
L4790 24010
L4790 24100
L4810 24150
L4830 24170
L4880 24200
L4980 24200
L5020 24170
L5050 24150
L5070 24100
L5070 24010
L5050 23960
L5020 23930
L4980 23910
" />
<path d="M5360 23910
L5310 23890
L5290 23860
L5270 23820
L5270 23790
L5290 23740
L5310 23720
L5360 23700
L5460 23700
L5500 23720
L5530 23740
L5550 23790
L5550 23820
L5530 23860
L5500 23890
L5460 23910
L5360 23910
L5310 23930
L5290 23960
L5270 24010
L5270 24100
L5290 24150
L5310 24170
L5360 24200
L5460 24200
L5500 24170
L5530 24150
L5550 24100
L5550 24010
L5530 23960
L5500 23930
L5460 23910
" />
<path d="M2690 23850
L2410 23850
" />
<path d="M2550 23850
L2550 23350
L2500 23420
L2450 23470
L2410 23490
" />
<path d="M3150 23350
L2910 23350
L2890 23580
L2910 23560
L2960 23540
L3080 23540
L3120 23560
L3150 23580
L3170 23630
L3170 23750
L3150 23800
L3120 23820
L3080 23850
L2960 23850
L2910 23820
L2890 23800
" />
<path d="M3790 33970
L1790 33970
" />
<path d="M4570 33720
L4520 33700
L4450 33700
L4380 33720
L4330 33770
L4310 33820
L4290 33910
L4290 33980
L4310 34080
L4330 34120
L4380 34170
L4450 34200
L4500 34200
L4570 34170
L4590 34150
L4590 33980
L4500 33980
" />
<path d="M5070 34200
L4790 34200
" />
<path d="M4930 34200
L4930 33700
L4880 33770
L4830 33820
L4790 33840
" />
<path d="M5380 33700
L5430 33700
L5480 33720
L5500 33740
L5530 33790
L5550 33890
L5550 34010
L5530 34100
L5500 34150
L5480 34170
L5430 34200
L5380 34200
L5340 34170
L5310 34150
L5290 34100
L5270 34010
L5270 33890
L5290 33790
L5310 33740
L5340 33720
L5380 33700
" />
<path d="M5860 33700
L5910 33700
L5960 33720
L5980 33740
L6010 33790
L6030 33890
L6030 34010
L6010 34100
L5980 34150
L5960 34170
L5910 34200
L5860 34200
L5820 34170
L5790 34150
L5770 34100
L5750 34010
L5750 33890
L5770 33790
L5790 33740
L5820 33720
L5860 33700
" />
<path d="M2410 33390
L2430 33370
L2480 33350
L2600 33350
L2640 33370
L2670 33390
L2690 33440
L2690 33490
L2670 33560
L2380 33850
L2690 33850
" />
<path d="M3150 33350
L2910 33350
L2890 33580
L2910 33560
L2960 33540
L3080 33540
L3120 33560
L3150 33580
L3170 33630
L3170 33750
L3150 33800
L3120 33820
L3080 33850
L2960 33850
L2910 33820
L2890 33800
" />
<path d="M3790 43970
L1790 43970
" />
<path d="M4570 43720
L4520 43700
L4450 43700
L4380 43720
L4330 43770
L4310 43820
L4290 43910
L4290 43980
L4310 44080
L4330 44120
L4380 44170
L4450 44200
L4500 44200
L4570 44170
L4590 44150
L4590 43980
L4500 43980
" />
<path d="M5070 44200
L4790 44200
" />
<path d="M4930 44200
L4930 43700
L4880 43770
L4830 43820
L4790 43840
" />
<path d="M5500 43860
L5500 44200
" />
<path d="M5380 43670
L5270 44030
L5570 44030
" />
<path d="M2380 43350
L2690 43350
L2520 43540
L2600 43540
L2640 43560
L2670 43580
L2690 43630
L2690 43750
L2670 43800
L2640 43820
L2600 43850
L2450 43850
L2410 43820
L2380 43800
" />
<path d="M3150 43350
L2910 43350
L2890 43580
L2910 43560
L2960 43540
L3080 43540
L3120 43560
L3150 43580
L3170 43630
L3170 43750
L3150 43800
L3120 43820
L3080 43850
L2960 43850
L2910 43820
L2890 43800
" />
<path d="M18290 52970
L20290 52970
" />
<path d="M16750 52720
L16700 52700
L16630 52700
L16560 52720
L16510 52770
L16490 52820
L16470 52910
L16470 52980
L16490 53080
L16510 53120
L16560 53170
L16630 53200
L16680 53200
L16750 53170
L16770 53150
L16770 52980
L16680 52980
" />
<path d="M16990 53200
L16990 52700
L17270 53200
L17270 52700
" />
<path d="M17510 53200
L17510 52700
L17630 52700
L17700 52720
L17750 52770
L17770 52820
L17790 52910
L17790 52980
L17770 53080
L17750 53120
L17700 53170
L17630 53200
L17510 53200
" />
<path d="M19140 52510
L19140 52850
" />
<path d="M19020 52320
L18910 52680
L19210 52680
" />
<path d="M19650 52350
L19410 52350
L19390 52580
L19410 52560
L19460 52540
L19580 52540
L19620 52560
L19650 52580
L19670 52630
L19670 52750
L19650 52800
L19620 52820
L19580 52850
L19460 52850
L19410 52820
L19390 52800
" />
<path d="M18290 42970
L20290 42970
" />
<path d="M16810 42720
L16760 42700
L16690 42700
L16620 42720
L16570 42770
L16550 42820
L16530 42910
L16530 42980
L16550 43080
L16570 43120
L16620 43170
L16690 43200
L16740 43200
L16810 43170
L16830 43150
L16830 42980
L16740 42980
" />
<path d="M17000 42700
L17310 42700
L17140 42890
L17220 42890
L17260 42910
L17290 42930
L17310 42980
L17310 43100
L17290 43150
L17260 43170
L17220 43200
L17070 43200
L17030 43170
L17000 43150
" />
<path d="M17740 42700
L17650 42700
L17600 42720
L17580 42740
L17530 42820
L17510 42910
L17510 43100
L17530 43150
L17550 43170
L17600 43200
L17700 43200
L17740 43170
L17770 43150
L17790 43100
L17790 42980
L17770 42930
L17740 42910
L17700 42890
L17600 42890
L17550 42910
L17530 42930
L17510 42980
" />
<path d="M19170 42350
L18930 42350
L18910 42580
L18930 42560
L18980 42540
L19100 42540
L19140 42560
L19170 42580
L19190 42630
L19190 42750
L19170 42800
L19140 42820
L19100 42850
L18980 42850
L18930 42820
L18910 42800
" />
<path d="M19650 42350
L19410 42350
L19390 42580
L19410 42560
L19460 42540
L19580 42540
L19620 42560
L19650 42580
L19670 42630
L19670 42750
L19650 42800
L19620 42820
L19580 42850
L19460 42850
L19410 42820
L19390 42800
" />
<path d="M18290 32970
L20290 32970
" />
<path d="M16810 32720
L16760 32700
L16690 32700
L16620 32720
L16570 32770
L16550 32820
L16530 32910
L16530 32980
L16550 33080
L16570 33120
L16620 33170
L16690 33200
L16740 33200
L16810 33170
L16830 33150
L16830 32980
L16740 32980
" />
<path d="M17260 32860
L17260 33200
" />
<path d="M17140 32670
L17030 33030
L17330 33030
" />
<path d="M17600 32910
L17550 32890
L17530 32860
L17510 32820
L17510 32790
L17530 32740
L17550 32720
L17600 32700
L17700 32700
L17740 32720
L17770 32740
L17790 32790
L17790 32820
L17770 32860
L17740 32890
L17700 32910
L17600 32910
L17550 32930
L17530 32960
L17510 33010
L17510 33100
L17530 33150
L17550 33170
L17600 33200
L17700 33200
L17740 33170
L17770 33150
L17790 33100
L17790 33010
L17770 32960
L17740 32930
L17700 32910
" />
<path d="M19140 32350
L19050 32350
L19000 32370
L18980 32390
L18930 32470
L18910 32560
L18910 32750
L18930 32800
L18950 32820
L19000 32850
L19100 32850
L19140 32820
L19170 32800
L19190 32750
L19190 32630
L19170 32580
L19140 32560
L19100 32540
L19000 32540
L18950 32560
L18930 32580
L18910 32630
" />
<path d="M19650 32350
L19410 32350
L19390 32580
L19410 32560
L19460 32540
L19580 32540
L19620 32560
L19650 32580
L19670 32630
L19670 32750
L19650 32800
L19620 32820
L19580 32850
L19460 32850
L19410 32820
L19390 32800
" />
<path d="M18290 22970
L20290 22970
" />
<path d="M16810 22720
L16760 22700
L16690 22700
L16620 22720
L16570 22770
L16550 22820
L16530 22910
L16530 22980
L16550 23080
L16570 23120
L16620 23170
L16690 23200
L16740 23200
L16810 23170
L16830 23150
L16830 22980
L16740 22980
" />
<path d="M17290 22700
L17050 22700
L17030 22930
L17050 22910
L17100 22890
L17220 22890
L17260 22910
L17290 22930
L17310 22980
L17310 23100
L17290 23150
L17260 23170
L17220 23200
L17100 23200
L17050 23170
L17030 23150
" />
<path d="M17600 22910
L17550 22890
L17530 22860
L17510 22820
L17510 22790
L17530 22740
L17550 22720
L17600 22700
L17700 22700
L17740 22720
L17770 22740
L17790 22790
L17790 22820
L17770 22860
L17740 22890
L17700 22910
L17600 22910
L17550 22930
L17530 22960
L17510 23010
L17510 23100
L17530 23150
L17550 23170
L17600 23200
L17700 23200
L17740 23170
L17770 23150
L17790 23100
L17790 23010
L17770 22960
L17740 22930
L17700 22910
" />
<path d="M18880 22350
L19210 22350
L19000 22850
" />
<path d="M19650 22350
L19410 22350
L19390 22580
L19410 22560
L19460 22540
L19580 22540
L19620 22560
L19650 22580
L19670 22630
L19670 22750
L19650 22800
L19620 22820
L19580 22850
L19460 22850
L19410 22820
L19390 22800
" />
<path d="M18290 12970
L20290 12970
" />
<path d="M16810 12720
L16760 12700
L16690 12700
L16620 12720
L16570 12770
L16550 12820
L16530 12910
L16530 12980
L16550 13080
L16570 13120
L16620 13170
L16690 13200
L16740 13200
L16810 13170
L16830 13150
L16830 12980
L16740 12980
" />
<path d="M17000 12700
L17330 12700
L17120 13200
" />
<path d="M17510 12740
L17530 12720
L17580 12700
L17700 12700
L17740 12720
L17770 12740
L17790 12790
L17790 12840
L17770 12910
L17480 13200
L17790 13200
" />
<path d="M19000 12560
L18950 12540
L18930 12510
L18910 12470
L18910 12440
L18930 12390
L18950 12370
L19000 12350
L19100 12350
L19140 12370
L19170 12390
L19190 12440
L19190 12470
L19170 12510
L19140 12540
L19100 12560
L19000 12560
L18950 12580
L18930 12610
L18910 12660
L18910 12750
L18930 12800
L18950 12820
L19000 12850
L19100 12850
L19140 12820
L19170 12800
L19190 12750
L19190 12660
L19170 12610
L19140 12580
L19100 12560
" />
<path d="M19650 12350
L19410 12350
L19390 12580
L19410 12560
L19460 12540
L19580 12540
L19620 12560
L19650 12580
L19670 12630
L19670 12750
L19650 12800
L19620 12820
L19580 12850
L19460 12850
L19410 12820
L19390 12800
" />
<path d="M3790 24970
L1790 24970
" />
<path d="M4570 24720
L4520 24700
L4450 24700
L4380 24720
L4330 24770
L4310 24820
L4290 24910
L4290 24980
L4310 25080
L4330 25120
L4380 25170
L4450 25200
L4500 25200
L4570 25170
L4590 25150
L4590 24980
L4500 24980
" />
<path d="M4880 24910
L4830 24890
L4810 24860
L4790 24820
L4790 24790
L4810 24740
L4830 24720
L4880 24700
L4980 24700
L5020 24720
L5050 24740
L5070 24790
L5070 24820
L5050 24860
L5020 24890
L4980 24910
L4880 24910
L4830 24930
L4810 24960
L4790 25010
L4790 25100
L4810 25150
L4830 25170
L4880 25200
L4980 25200
L5020 25170
L5050 25150
L5070 25100
L5070 25010
L5050 24960
L5020 24930
L4980 24910
" />
<path d="M5310 25200
L5410 25200
L5460 25170
L5480 25150
L5530 25080
L5550 24980
L5550 24790
L5530 24740
L5500 24720
L5460 24700
L5360 24700
L5310 24720
L5290 24740
L5270 24790
L5270 24910
L5290 24960
L5310 24980
L5360 25010
L5460 25010
L5500 24980
L5530 24960
L5550 24910
" />
<path d="M2690 24850
L2410 24850
" />
<path d="M2550 24850
L2550 24350
L2500 24420
L2450 24470
L2410 24490
" />
<path d="M3120 24350
L3030 24350
L2980 24370
L2960 24390
L2910 24470
L2890 24560
L2890 24750
L2910 24800
L2930 24820
L2980 24850
L3080 24850
L3120 24820
L3150 24800
L3170 24750
L3170 24630
L3150 24580
L3120 24560
L3080 24540
L2980 24540
L2930 24560
L2910 24580
L2890 24630
" />
<path d="M3790 34970
L1790 34970
" />
<path d="M4570 34720
L4520 34700
L4450 34700
L4380 34720
L4330 34770
L4310 34820
L4290 34910
L4290 34980
L4310 35080
L4330 35120
L4380 35170
L4450 35200
L4500 35200
L4570 35170
L4590 35150
L4590 34980
L4500 34980
" />
<path d="M5070 35200
L4790 35200
" />
<path d="M4930 35200
L4930 34700
L4880 34770
L4830 34820
L4790 34840
" />
<path d="M2410 34390
L2430 34370
L2480 34350
L2600 34350
L2640 34370
L2670 34390
L2690 34440
L2690 34490
L2670 34560
L2380 34850
L2690 34850
" />
<path d="M3120 34350
L3030 34350
L2980 34370
L2960 34390
L2910 34470
L2890 34560
L2890 34750
L2910 34800
L2930 34820
L2980 34850
L3080 34850
L3120 34820
L3150 34800
L3170 34750
L3170 34630
L3150 34580
L3120 34560
L3080 34540
L2980 34540
L2930 34560
L2910 34580
L2890 34630
" />
<path d="M3790 44970
L1790 44970
" />
<path d="M4570 44720
L4520 44700
L4450 44700
L4380 44720
L4330 44770
L4310 44820
L4290 44910
L4290 44980
L4310 45080
L4330 45120
L4380 45170
L4450 45200
L4500 45200
L4570 45170
L4590 45150
L4590 44980
L4500 44980
" />
<path d="M5070 45200
L4790 45200
" />
<path d="M4930 45200
L4930 44700
L4880 44770
L4830 44820
L4790 44840
" />
<path d="M5530 44700
L5290 44700
L5270 44930
L5290 44910
L5340 44890
L5460 44890
L5500 44910
L5530 44930
L5550 44980
L5550 45100
L5530 45150
L5500 45170
L5460 45200
L5340 45200
L5290 45170
L5270 45150
" />
<path d="M2380 44350
L2690 44350
L2520 44540
L2600 44540
L2640 44560
L2670 44580
L2690 44630
L2690 44750
L2670 44800
L2640 44820
L2600 44850
L2450 44850
L2410 44820
L2380 44800
" />
<path d="M3120 44350
L3030 44350
L2980 44370
L2960 44390
L2910 44470
L2890 44560
L2890 44750
L2910 44800
L2930 44820
L2980 44850
L3080 44850
L3120 44820
L3150 44800
L3170 44750
L3170 44630
L3150 44580
L3120 44560
L3080 44540
L2980 44540
L2930 44560
L2910 44580
L2890 44630
" />
<path d="M18290 51970
L20290 51970
" />
<path d="M16510 51700
L16670 52200
L16840 51700
" />
<path d="M17290 52150
L17270 52170
L17200 52200
L17150 52200
L17080 52170
L17030 52120
L17010 52080
L16990 51980
L16990 51910
L17010 51820
L17030 51770
L17080 51720
L17150 51700
L17200 51700
L17270 51720
L17290 51740
" />
<path d="M17790 52150
L17770 52170
L17700 52200
L17650 52200
L17580 52170
L17530 52120
L17510 52080
L17490 51980
L17490 51910
L17510 51820
L17530 51770
L17580 51720
L17650 51700
L17700 51700
L17770 51720
L17790 51740
" />
<path d="M19140 51510
L19140 51850
" />
<path d="M19020 51320
L18910 51680
L19210 51680
" />
<path d="M19620 51350
L19530 51350
L19480 51370
L19460 51390
L19410 51470
L19390 51560
L19390 51750
L19410 51800
L19430 51820
L19480 51850
L19580 51850
L19620 51820
L19650 51800
L19670 51750
L19670 51630
L19650 51580
L19620 51560
L19580 51540
L19480 51540
L19430 51560
L19410 51580
L19390 51630
" />
<path d="M18290 41970
L20290 41970
" />
<path d="M16810 41720
L16760 41700
L16690 41700
L16620 41720
L16570 41770
L16550 41820
L16530 41910
L16530 41980
L16550 42080
L16570 42120
L16620 42170
L16690 42200
L16740 42200
L16810 42170
L16830 42150
L16830 41980
L16740 41980
" />
<path d="M17000 41700
L17310 41700
L17140 41890
L17220 41890
L17260 41910
L17290 41930
L17310 41980
L17310 42100
L17290 42150
L17260 42170
L17220 42200
L17070 42200
L17030 42170
L17000 42150
" />
<path d="M17480 41700
L17810 41700
L17600 42200
" />
<path d="M19170 41350
L18930 41350
L18910 41580
L18930 41560
L18980 41540
L19100 41540
L19140 41560
L19170 41580
L19190 41630
L19190 41750
L19170 41800
L19140 41820
L19100 41850
L18980 41850
L18930 41820
L18910 41800
" />
<path d="M19620 41350
L19530 41350
L19480 41370
L19460 41390
L19410 41470
L19390 41560
L19390 41750
L19410 41800
L19430 41820
L19480 41850
L19580 41850
L19620 41820
L19650 41800
L19670 41750
L19670 41630
L19650 41580
L19620 41560
L19580 41540
L19480 41540
L19430 41560
L19410 41580
L19390 41630
" />
<path d="M18290 31970
L20290 31970
" />
<path d="M16810 31720
L16760 31700
L16690 31700
L16620 31720
L16570 31770
L16550 31820
L16530 31910
L16530 31980
L16550 32080
L16570 32120
L16620 32170
L16690 32200
L16740 32200
L16810 32170
L16830 32150
L16830 31980
L16740 31980
" />
<path d="M17260 31860
L17260 32200
" />
<path d="M17140 31670
L17030 32030
L17330 32030
" />
<path d="M17550 32200
L17650 32200
L17700 32170
L17720 32150
L17770 32080
L17790 31980
L17790 31790
L17770 31740
L17740 31720
L17700 31700
L17600 31700
L17550 31720
L17530 31740
L17510 31790
L17510 31910
L17530 31960
L17550 31980
L17600 32010
L17700 32010
L17740 31980
L17770 31960
L17790 31910
" />
<path d="M19140 31350
L19050 31350
L19000 31370
L18980 31390
L18930 31470
L18910 31560
L18910 31750
L18930 31800
L18950 31820
L19000 31850
L19100 31850
L19140 31820
L19170 31800
L19190 31750
L19190 31630
L19170 31580
L19140 31560
L19100 31540
L19000 31540
L18950 31560
L18930 31580
L18910 31630
" />
<path d="M19620 31350
L19530 31350
L19480 31370
L19460 31390
L19410 31470
L19390 31560
L19390 31750
L19410 31800
L19430 31820
L19480 31850
L19580 31850
L19620 31820
L19650 31800
L19670 31750
L19670 31630
L19650 31580
L19620 31560
L19580 31540
L19480 31540
L19430 31560
L19410 31580
L19390 31630
" />
<path d="M18290 21970
L20290 21970
" />
<path d="M16810 21720
L16760 21700
L16690 21700
L16620 21720
L16570 21770
L16550 21820
L16530 21910
L16530 21980
L16550 22080
L16570 22120
L16620 22170
L16690 22200
L16740 22200
L16810 22170
L16830 22150
L16830 21980
L16740 21980
" />
<path d="M17290 21700
L17050 21700
L17030 21930
L17050 21910
L17100 21890
L17220 21890
L17260 21910
L17290 21930
L17310 21980
L17310 22100
L17290 22150
L17260 22170
L17220 22200
L17100 22200
L17050 22170
L17030 22150
" />
<path d="M17550 22200
L17650 22200
L17700 22170
L17720 22150
L17770 22080
L17790 21980
L17790 21790
L17770 21740
L17740 21720
L17700 21700
L17600 21700
L17550 21720
L17530 21740
L17510 21790
L17510 21910
L17530 21960
L17550 21980
L17600 22010
L17700 22010
L17740 21980
L17770 21960
L17790 21910
" />
<path d="M18880 21350
L19210 21350
L19000 21850
" />
<path d="M19620 21350
L19530 21350
L19480 21370
L19460 21390
L19410 21470
L19390 21560
L19390 21750
L19410 21800
L19430 21820
L19480 21850
L19580 21850
L19620 21820
L19650 21800
L19670 21750
L19670 21630
L19650 21580
L19620 21560
L19580 21540
L19480 21540
L19430 21560
L19410 21580
L19390 21630
" />
<path d="M18290 11970
L20290 11970
" />
<path d="M16810 11720
L16760 11700
L16690 11700
L16620 11720
L16570 11770
L16550 11820
L16530 11910
L16530 11980
L16550 12080
L16570 12120
L16620 12170
L16690 12200
L16740 12200
L16810 12170
L16830 12150
L16830 11980
L16740 11980
" />
<path d="M17000 11700
L17330 11700
L17120 12200
" />
<path d="M17480 11700
L17790 11700
L17620 11890
L17700 11890
L17740 11910
L17770 11930
L17790 11980
L17790 12100
L17770 12150
L17740 12170
L17700 12200
L17550 12200
L17510 12170
L17480 12150
" />
<path d="M19000 11560
L18950 11540
L18930 11510
L18910 11470
L18910 11440
L18930 11390
L18950 11370
L19000 11350
L19100 11350
L19140 11370
L19170 11390
L19190 11440
L19190 11470
L19170 11510
L19140 11540
L19100 11560
L19000 11560
L18950 11580
L18930 11610
L18910 11660
L18910 11750
L18930 11800
L18950 11820
L19000 11850
L19100 11850
L19140 11820
L19170 11800
L19190 11750
L19190 11660
L19170 11610
L19140 11580
L19100 11560
" />
<path d="M19620 11350
L19530 11350
L19480 11370
L19460 11390
L19410 11470
L19390 11560
L19390 11750
L19410 11800
L19430 11820
L19480 11850
L19580 11850
L19620 11820
L19650 11800
L19670 11750
L19670 11630
L19650 11580
L19620 11560
L19580 11540
L19480 11540
L19430 11560
L19410 11580
L19390 11630
" />
<path d="M3790 25970
L1790 25970
" />
<path d="M4570 25720
L4520 25700
L4450 25700
L4380 25720
L4330 25770
L4310 25820
L4290 25910
L4290 25980
L4310 26080
L4330 26120
L4380 26170
L4450 26200
L4500 26200
L4570 26170
L4590 26150
L4590 25980
L4500 25980
" />
<path d="M4830 26200
L4930 26200
L4980 26170
L5000 26150
L5050 26080
L5070 25980
L5070 25790
L5050 25740
L5020 25720
L4980 25700
L4880 25700
L4830 25720
L4810 25740
L4790 25790
L4790 25910
L4810 25960
L4830 25980
L4880 26010
L4980 26010
L5020 25980
L5050 25960
L5070 25910
" />
<path d="M5380 25700
L5430 25700
L5480 25720
L5500 25740
L5530 25790
L5550 25890
L5550 26010
L5530 26100
L5500 26150
L5480 26170
L5430 26200
L5380 26200
L5340 26170
L5310 26150
L5290 26100
L5270 26010
L5270 25890
L5290 25790
L5310 25740
L5340 25720
L5380 25700
" />
<path d="M2690 25850
L2410 25850
" />
<path d="M2550 25850
L2550 25350
L2500 25420
L2450 25470
L2410 25490
" />
<path d="M2860 25350
L3190 25350
L2980 25850
" />
<path d="M3790 35970
L1790 35970
" />
<path d="M4570 35720
L4520 35700
L4450 35700
L4380 35720
L4330 35770
L4310 35820
L4290 35910
L4290 35980
L4310 36080
L4330 36120
L4380 36170
L4450 36200
L4500 36200
L4570 36170
L4590 36150
L4590 35980
L4500 35980
" />
<path d="M4790 35740
L4810 35720
L4860 35700
L4980 35700
L5020 35720
L5050 35740
L5070 35790
L5070 35840
L5050 35910
L4760 36200
L5070 36200
" />
<path d="M2410 35390
L2430 35370
L2480 35350
L2600 35350
L2640 35370
L2670 35390
L2690 35440
L2690 35490
L2670 35560
L2380 35850
L2690 35850
" />
<path d="M2860 35350
L3190 35350
L2980 35850
" />
<path d="M3790 45970
L1790 45970
" />
<path d="M4570 45720
L4520 45700
L4450 45700
L4380 45720
L4330 45770
L4310 45820
L4290 45910
L4290 45980
L4310 46080
L4330 46120
L4380 46170
L4450 46200
L4500 46200
L4570 46170
L4590 46150
L4590 45980
L4500 45980
" />
<path d="M5070 46200
L4790 46200
" />
<path d="M4930 46200
L4930 45700
L4880 45770
L4830 45820
L4790 45840
" />
<path d="M5500 45700
L5410 45700
L5360 45720
L5340 45740
L5290 45820
L5270 45910
L5270 46100
L5290 46150
L5310 46170
L5360 46200
L5460 46200
L5500 46170
L5530 46150
L5550 46100
L5550 45980
L5530 45930
L5500 45910
L5460 45890
L5360 45890
L5310 45910
L5290 45930
L5270 45980
" />
<path d="M2380 45350
L2690 45350
L2520 45540
L2600 45540
L2640 45560
L2670 45580
L2690 45630
L2690 45750
L2670 45800
L2640 45820
L2600 45850
L2450 45850
L2410 45820
L2380 45800
" />
<path d="M2860 45350
L3190 45350
L2980 45850
" />
<path d="M18290 50970
L20290 50970
" />
<path d="M16810 50720
L16760 50700
L16690 50700
L16620 50720
L16570 50770
L16550 50820
L16530 50910
L16530 50980
L16550 51080
L16570 51120
L16620 51170
L16690 51200
L16740 51200
L16810 51170
L16830 51150
L16830 50980
L16740 50980
" />
<path d="M17030 50740
L17050 50720
L17100 50700
L17220 50700
L17260 50720
L17290 50740
L17310 50790
L17310 50840
L17290 50910
L17000 51200
L17310 51200
" />
<path d="M17740 50700
L17650 50700
L17600 50720
L17580 50740
L17530 50820
L17510 50910
L17510 51100
L17530 51150
L17550 51170
L17600 51200
L17700 51200
L17740 51170
L17770 51150
L17790 51100
L17790 50980
L17770 50930
L17740 50910
L17700 50890
L17600 50890
L17550 50910
L17530 50930
L17510 50980
" />
<path d="M19140 50510
L19140 50850
" />
<path d="M19020 50320
L18910 50680
L19210 50680
" />
<path d="M19360 50350
L19690 50350
L19480 50850
" />
<path d="M18290 40970
L20290 40970
" />
<path d="M16810 40720
L16760 40700
L16690 40700
L16620 40720
L16570 40770
L16550 40820
L16530 40910
L16530 40980
L16550 41080
L16570 41120
L16620 41170
L16690 41200
L16740 41200
L16810 41170
L16830 41150
L16830 40980
L16740 40980
" />
<path d="M17000 40700
L17310 40700
L17140 40890
L17220 40890
L17260 40910
L17290 40930
L17310 40980
L17310 41100
L17290 41150
L17260 41170
L17220 41200
L17070 41200
L17030 41170
L17000 41150
" />
<path d="M17600 40910
L17550 40890
L17530 40860
L17510 40820
L17510 40790
L17530 40740
L17550 40720
L17600 40700
L17700 40700
L17740 40720
L17770 40740
L17790 40790
L17790 40820
L17770 40860
L17740 40890
L17700 40910
L17600 40910
L17550 40930
L17530 40960
L17510 41010
L17510 41100
L17530 41150
L17550 41170
L17600 41200
L17700 41200
L17740 41170
L17770 41150
L17790 41100
L17790 41010
L17770 40960
L17740 40930
L17700 40910
" />
<path d="M19170 40350
L18930 40350
L18910 40580
L18930 40560
L18980 40540
L19100 40540
L19140 40560
L19170 40580
L19190 40630
L19190 40750
L19170 40800
L19140 40820
L19100 40850
L18980 40850
L18930 40820
L18910 40800
" />
<path d="M19360 40350
L19690 40350
L19480 40850
" />
<path d="M18290 30970
L20290 30970
" />
<path d="M16810 30720
L16760 30700
L16690 30700
L16620 30720
L16570 30770
L16550 30820
L16530 30910
L16530 30980
L16550 31080
L16570 31120
L16620 31170
L16690 31200
L16740 31200
L16810 31170
L16830 31150
L16830 30980
L16740 30980
" />
<path d="M17290 30700
L17050 30700
L17030 30930
L17050 30910
L17100 30890
L17220 30890
L17260 30910
L17290 30930
L17310 30980
L17310 31100
L17290 31150
L17260 31170
L17220 31200
L17100 31200
L17050 31170
L17030 31150
" />
<path d="M17620 30700
L17670 30700
L17720 30720
L17740 30740
L17770 30790
L17790 30890
L17790 31010
L17770 31100
L17740 31150
L17720 31170
L17670 31200
L17620 31200
L17580 31170
L17550 31150
L17530 31100
L17510 31010
L17510 30890
L17530 30790
L17550 30740
L17580 30720
L17620 30700
" />
<path d="M19140 30350
L19050 30350
L19000 30370
L18980 30390
L18930 30470
L18910 30560
L18910 30750
L18930 30800
L18950 30820
L19000 30850
L19100 30850
L19140 30820
L19170 30800
L19190 30750
L19190 30630
L19170 30580
L19140 30560
L19100 30540
L19000 30540
L18950 30560
L18930 30580
L18910 30630
" />
<path d="M19360 30350
L19690 30350
L19480 30850
" />
<path d="M18290 20970
L20290 20970
" />
<path d="M16810 20720
L16760 20700
L16690 20700
L16620 20720
L16570 20770
L16550 20820
L16530 20910
L16530 20980
L16550 21080
L16570 21120
L16620 21170
L16690 21200
L16740 21200
L16810 21170
L16830 21150
L16830 20980
L16740 20980
" />
<path d="M17260 20700
L17170 20700
L17120 20720
L17100 20740
L17050 20820
L17030 20910
L17030 21100
L17050 21150
L17070 21170
L17120 21200
L17220 21200
L17260 21170
L17290 21150
L17310 21100
L17310 20980
L17290 20930
L17260 20910
L17220 20890
L17120 20890
L17070 20910
L17050 20930
L17030 20980
" />
<path d="M17510 20740
L17530 20720
L17580 20700
L17700 20700
L17740 20720
L17770 20740
L17790 20790
L17790 20840
L17770 20910
L17480 21200
L17790 21200
" />
<path d="M18880 20350
L19210 20350
L19000 20850
" />
<path d="M19360 20350
L19690 20350
L19480 20850
" />
<path d="M18290 10970
L20290 10970
" />
<path d="M16750 10720
L16700 10700
L16630 10700
L16560 10720
L16510 10770
L16490 10820
L16470 10910
L16470 10980
L16490 11080
L16510 11120
L16560 11170
L16630 11200
L16680 11200
L16750 11170
L16770 11150
L16770 10980
L16680 10980
" />
<path d="M16990 11200
L16990 10700
L17270 11200
L17270 10700
" />
<path d="M17510 11200
L17510 10700
L17630 10700
L17700 10720
L17750 10770
L17770 10820
L17790 10910
L17790 10980
L17770 11080
L17750 11120
L17700 11170
L17630 11200
L17510 11200
" />
<path d="M19000 10560
L18950 10540
L18930 10510
L18910 10470
L18910 10440
L18930 10390
L18950 10370
L19000 10350
L19100 10350
L19140 10370
L19170 10390
L19190 10440
L19190 10470
L19170 10510
L19140 10540
L19100 10560
L19000 10560
L18950 10580
L18930 10610
L18910 10660
L18910 10750
L18930 10800
L18950 10820
L19000 10850
L19100 10850
L19140 10820
L19170 10800
L19190 10750
L19190 10660
L19170 10610
L19140 10580
L19100 10560
" />
<path d="M19360 10350
L19690 10350
L19480 10850
" />
<path d="M3790 26970
L1790 26970
" />
<path d="M4570 26720
L4520 26700
L4450 26700
L4380 26720
L4330 26770
L4310 26820
L4290 26910
L4290 26980
L4310 27080
L4330 27120
L4380 27170
L4450 27200
L4500 27200
L4570 27170
L4590 27150
L4590 26980
L4500 26980
" />
<path d="M4830 27200
L4930 27200
L4980 27170
L5000 27150
L5050 27080
L5070 26980
L5070 26790
L5050 26740
L5020 26720
L4980 26700
L4880 26700
L4830 26720
L4810 26740
L4790 26790
L4790 26910
L4810 26960
L4830 26980
L4880 27010
L4980 27010
L5020 26980
L5050 26960
L5070 26910
" />
<path d="M5550 27200
L5270 27200
" />
<path d="M5410 27200
L5410 26700
L5360 26770
L5310 26820
L5270 26840
" />
<path d="M2690 26850
L2410 26850
" />
<path d="M2550 26850
L2550 26350
L2500 26420
L2450 26470
L2410 26490
" />
<path d="M2980 26560
L2930 26540
L2910 26510
L2890 26470
L2890 26440
L2910 26390
L2930 26370
L2980 26350
L3080 26350
L3120 26370
L3150 26390
L3170 26440
L3170 26470
L3150 26510
L3120 26540
L3080 26560
L2980 26560
L2930 26580
L2910 26610
L2890 26660
L2890 26750
L2910 26800
L2930 26820
L2980 26850
L3080 26850
L3120 26820
L3150 26800
L3170 26750
L3170 26660
L3150 26610
L3120 26580
L3080 26560
" />
<path d="M3790 36970
L1790 36970
" />
<path d="M4570 36720
L4520 36700
L4450 36700
L4380 36720
L4330 36770
L4310 36820
L4290 36910
L4290 36980
L4310 37080
L4330 37120
L4380 37170
L4450 37200
L4500 37200
L4570 37170
L4590 37150
L4590 36980
L4500 36980
" />
<path d="M4760 36700
L5070 36700
L4900 36890
L4980 36890
L5020 36910
L5050 36930
L5070 36980
L5070 37100
L5050 37150
L5020 37170
L4980 37200
L4830 37200
L4790 37170
L4760 37150
" />
<path d="M2410 36390
L2430 36370
L2480 36350
L2600 36350
L2640 36370
L2670 36390
L2690 36440
L2690 36490
L2670 36560
L2380 36850
L2690 36850
" />
<path d="M2980 36560
L2930 36540
L2910 36510
L2890 36470
L2890 36440
L2910 36390
L2930 36370
L2980 36350
L3080 36350
L3120 36370
L3150 36390
L3170 36440
L3170 36470
L3150 36510
L3120 36540
L3080 36560
L2980 36560
L2930 36580
L2910 36610
L2890 36660
L2890 36750
L2910 36800
L2930 36820
L2980 36850
L3080 36850
L3120 36820
L3150 36800
L3170 36750
L3170 36660
L3150 36610
L3120 36580
L3080 36560
" />
<path d="M3790 46970
L1790 46970
" />
<path d="M4570 46720
L4520 46700
L4450 46700
L4380 46720
L4330 46770
L4310 46820
L4290 46910
L4290 46980
L4310 47080
L4330 47120
L4380 47170
L4450 47200
L4500 47200
L4570 47170
L4590 47150
L4590 46980
L4500 46980
" />
<path d="M5070 47200
L4790 47200
" />
<path d="M4930 47200
L4930 46700
L4880 46770
L4830 46820
L4790 46840
" />
<path d="M5240 46700
L5570 46700
L5360 47200
" />
<path d="M2380 46350
L2690 46350
L2520 46540
L2600 46540
L2640 46560
L2670 46580
L2690 46630
L2690 46750
L2670 46800
L2640 46820
L2600 46850
L2450 46850
L2410 46820
L2380 46800
" />
<path d="M2980 46560
L2930 46540
L2910 46510
L2890 46470
L2890 46440
L2910 46390
L2930 46370
L2980 46350
L3080 46350
L3120 46370
L3150 46390
L3170 46440
L3170 46470
L3150 46510
L3120 46540
L3080 46560
L2980 46560
L2930 46580
L2910 46610
L2890 46660
L2890 46750
L2910 46800
L2930 46820
L2980 46850
L3080 46850
L3120 46820
L3150 46800
L3170 46750
L3170 46660
L3150 46610
L3120 46580
L3080 46560
" />
<path d="M18290 49970
L20290 49970
" />
<path d="M16810 49720
L16760 49700
L16690 49700
L16620 49720
L16570 49770
L16550 49820
L16530 49910
L16530 49980
L16550 50080
L16570 50120
L16620 50170
L16690 50200
L16740 50200
L16810 50170
L16830 50150
L16830 49980
L16740 49980
" />
<path d="M17030 49740
L17050 49720
L17100 49700
L17220 49700
L17260 49720
L17290 49740
L17310 49790
L17310 49840
L17290 49910
L17000 50200
L17310 50200
" />
<path d="M17480 49700
L17810 49700
L17600 50200
" />
<path d="M19140 49510
L19140 49850
" />
<path d="M19020 49320
L18910 49680
L19210 49680
" />
<path d="M19480 49560
L19430 49540
L19410 49510
L19390 49470
L19390 49440
L19410 49390
L19430 49370
L19480 49350
L19580 49350
L19620 49370
L19650 49390
L19670 49440
L19670 49470
L19650 49510
L19620 49540
L19580 49560
L19480 49560
L19430 49580
L19410 49610
L19390 49660
L19390 49750
L19410 49800
L19430 49820
L19480 49850
L19580 49850
L19620 49820
L19650 49800
L19670 49750
L19670 49660
L19650 49610
L19620 49580
L19580 49560
" />
<path d="M18290 39970
L20290 39970
" />
<path d="M16810 39720
L16760 39700
L16690 39700
L16620 39720
L16570 39770
L16550 39820
L16530 39910
L16530 39980
L16550 40080
L16570 40120
L16620 40170
L16690 40200
L16740 40200
L16810 40170
L16830 40150
L16830 39980
L16740 39980
" />
<path d="M17000 39700
L17310 39700
L17140 39890
L17220 39890
L17260 39910
L17290 39930
L17310 39980
L17310 40100
L17290 40150
L17260 40170
L17220 40200
L17070 40200
L17030 40170
L17000 40150
" />
<path d="M17550 40200
L17650 40200
L17700 40170
L17720 40150
L17770 40080
L17790 39980
L17790 39790
L17770 39740
L17740 39720
L17700 39700
L17600 39700
L17550 39720
L17530 39740
L17510 39790
L17510 39910
L17530 39960
L17550 39980
L17600 40010
L17700 40010
L17740 39980
L17770 39960
L17790 39910
" />
<path d="M19170 39350
L18930 39350
L18910 39580
L18930 39560
L18980 39540
L19100 39540
L19140 39560
L19170 39580
L19190 39630
L19190 39750
L19170 39800
L19140 39820
L19100 39850
L18980 39850
L18930 39820
L18910 39800
" />
<path d="M19480 39560
L19430 39540
L19410 39510
L19390 39470
L19390 39440
L19410 39390
L19430 39370
L19480 39350
L19580 39350
L19620 39370
L19650 39390
L19670 39440
L19670 39470
L19650 39510
L19620 39540
L19580 39560
L19480 39560
L19430 39580
L19410 39610
L19390 39660
L19390 39750
L19410 39800
L19430 39820
L19480 39850
L19580 39850
L19620 39820
L19650 39800
L19670 39750
L19670 39660
L19650 39610
L19620 39580
L19580 39560
" />
<path d="M18290 29970
L20290 29970
" />
<path d="M16810 29720
L16760 29700
L16690 29700
L16620 29720
L16570 29770
L16550 29820
L16530 29910
L16530 29980
L16550 30080
L16570 30120
L16620 30170
L16690 30200
L16740 30200
L16810 30170
L16830 30150
L16830 29980
L16740 29980
" />
<path d="M17290 29700
L17050 29700
L17030 29930
L17050 29910
L17100 29890
L17220 29890
L17260 29910
L17290 29930
L17310 29980
L17310 30100
L17290 30150
L17260 30170
L17220 30200
L17100 30200
L17050 30170
L17030 30150
" />
<path d="M17790 30200
L17510 30200
" />
<path d="M17650 30200
L17650 29700
L17600 29770
L17550 29820
L17510 29840
" />
<path d="M19140 29350
L19050 29350
L19000 29370
L18980 29390
L18930 29470
L18910 29560
L18910 29750
L18930 29800
L18950 29820
L19000 29850
L19100 29850
L19140 29820
L19170 29800
L19190 29750
L19190 29630
L19170 29580
L19140 29560
L19100 29540
L19000 29540
L18950 29560
L18930 29580
L18910 29630
" />
<path d="M19480 29560
L19430 29540
L19410 29510
L19390 29470
L19390 29440
L19410 29390
L19430 29370
L19480 29350
L19580 29350
L19620 29370
L19650 29390
L19670 29440
L19670 29470
L19650 29510
L19620 29540
L19580 29560
L19480 29560
L19430 29580
L19410 29610
L19390 29660
L19390 29750
L19410 29800
L19430 29820
L19480 29850
L19580 29850
L19620 29820
L19650 29800
L19670 29750
L19670 29660
L19650 29610
L19620 29580
L19580 29560
" />
<path d="M18290 19970
L20290 19970
" />
<path d="M16810 19720
L16760 19700
L16690 19700
L16620 19720
L16570 19770
L16550 19820
L16530 19910
L16530 19980
L16550 20080
L16570 20120
L16620 20170
L16690 20200
L16740 20200
L16810 20170
L16830 20150
L16830 19980
L16740 19980
" />
<path d="M17260 19700
L17170 19700
L17120 19720
L17100 19740
L17050 19820
L17030 19910
L17030 20100
L17050 20150
L17070 20170
L17120 20200
L17220 20200
L17260 20170
L17290 20150
L17310 20100
L17310 19980
L17290 19930
L17260 19910
L17220 19890
L17120 19890
L17070 19910
L17050 19930
L17030 19980
" />
<path d="M17740 19860
L17740 20200
" />
<path d="M17620 19670
L17510 20030
L17810 20030
" />
<path d="M18880 19350
L19210 19350
L19000 19850
" />
<path d="M19480 19560
L19430 19540
L19410 19510
L19390 19470
L19390 19440
L19410 19390
L19430 19370
L19480 19350
L19580 19350
L19620 19370
L19650 19390
L19670 19440
L19670 19470
L19650 19510
L19620 19540
L19580 19560
L19480 19560
L19430 19580
L19410 19610
L19390 19660
L19390 19750
L19410 19800
L19430 19820
L19480 19850
L19580 19850
L19620 19820
L19650 19800
L19670 19750
L19670 19660
L19650 19610
L19620 19580
L19580 19560
" />
<path d="M18290 9970
L20290 9970
" />
<path d="M16750 9720
L16700 9700
L16630 9700
L16560 9720
L16510 9770
L16490 9820
L16470 9910
L16470 9980
L16490 10080
L16510 10120
L16560 10170
L16630 10200
L16680 10200
L16750 10170
L16770 10150
L16770 9980
L16680 9980
" />
<path d="M16990 10200
L16990 9700
L17270 10200
L17270 9700
" />
<path d="M17510 10200
L17510 9700
L17630 9700
L17700 9720
L17750 9770
L17770 9820
L17790 9910
L17790 9980
L17770 10080
L17750 10120
L17700 10170
L17630 10200
L17510 10200
" />
<path d="M19000 9560
L18950 9540
L18930 9510
L18910 9470
L18910 9440
L18930 9390
L18950 9370
L19000 9350
L19100 9350
L19140 9370
L19170 9390
L19190 9440
L19190 9470
L19170 9510
L19140 9540
L19100 9560
L19000 9560
L18950 9580
L18930 9610
L18910 9660
L18910 9750
L18930 9800
L18950 9820
L19000 9850
L19100 9850
L19140 9820
L19170 9800
L19190 9750
L19190 9660
L19170 9610
L19140 9580
L19100 9560
" />
<path d="M19480 9560
L19430 9540
L19410 9510
L19390 9470
L19390 9440
L19410 9390
L19430 9370
L19480 9350
L19580 9350
L19620 9370
L19650 9390
L19670 9440
L19670 9470
L19650 9510
L19620 9540
L19580 9560
L19480 9560
L19430 9580
L19410 9610
L19390 9660
L19390 9750
L19410 9800
L19430 9820
L19480 9850
L19580 9850
L19620 9820
L19650 9800
L19670 9750
L19670 9660
L19650 9610
L19620 9580
L19580 9560
" />
<path d="M3790 27970
L1790 27970
" />
<path d="M4570 27720
L4520 27700
L4450 27700
L4380 27720
L4330 27770
L4310 27820
L4290 27910
L4290 27980
L4310 28080
L4330 28120
L4380 28170
L4450 28200
L4500 28200
L4570 28170
L4590 28150
L4590 27980
L4500 27980
" />
<path d="M4830 28200
L4930 28200
L4980 28170
L5000 28150
L5050 28080
L5070 27980
L5070 27790
L5050 27740
L5020 27720
L4980 27700
L4880 27700
L4830 27720
L4810 27740
L4790 27790
L4790 27910
L4810 27960
L4830 27980
L4880 28010
L4980 28010
L5020 27980
L5050 27960
L5070 27910
" />
<path d="M5270 27740
L5290 27720
L5340 27700
L5460 27700
L5500 27720
L5530 27740
L5550 27790
L5550 27840
L5530 27910
L5240 28200
L5550 28200
" />
<path d="M2690 27850
L2410 27850
" />
<path d="M2550 27850
L2550 27350
L2500 27420
L2450 27470
L2410 27490
" />
<path d="M2930 27850
L3030 27850
L3080 27820
L3100 27800
L3150 27730
L3170 27630
L3170 27440
L3150 27390
L3120 27370
L3080 27350
L2980 27350
L2930 27370
L2910 27390
L2890 27440
L2890 27560
L2910 27610
L2930 27630
L2980 27660
L3080 27660
L3120 27630
L3150 27610
L3170 27560
" />
<path d="M3790 37970
L1790 37970
" />
<path d="M4570 37720
L4520 37700
L4450 37700
L4380 37720
L4330 37770
L4310 37820
L4290 37910
L4290 37980
L4310 38080
L4330 38120
L4380 38170
L4450 38200
L4500 38200
L4570 38170
L4590 38150
L4590 37980
L4500 37980
" />
<path d="M5020 37860
L5020 38200
" />
<path d="M4900 37670
L4790 38030
L5090 38030
" />
<path d="M2410 37390
L2430 37370
L2480 37350
L2600 37350
L2640 37370
L2670 37390
L2690 37440
L2690 37490
L2670 37560
L2380 37850
L2690 37850
" />
<path d="M2930 37850
L3030 37850
L3080 37820
L3100 37800
L3150 37730
L3170 37630
L3170 37440
L3150 37390
L3120 37370
L3080 37350
L2980 37350
L2930 37370
L2910 37390
L2890 37440
L2890 37560
L2910 37610
L2930 37630
L2980 37660
L3080 37660
L3120 37630
L3150 37610
L3170 37560
" />
<path d="M3790 47970
L1790 47970
" />
<path d="M4570 47720
L4520 47700
L4450 47700
L4380 47720
L4330 47770
L4310 47820
L4290 47910
L4290 47980
L4310 48080
L4330 48120
L4380 48170
L4450 48200
L4500 48200
L4570 48170
L4590 48150
L4590 47980
L4500 47980
" />
<path d="M5070 48200
L4790 48200
" />
<path d="M4930 48200
L4930 47700
L4880 47770
L4830 47820
L4790 47840
" />
<path d="M5360 47910
L5310 47890
L5290 47860
L5270 47820
L5270 47790
L5290 47740
L5310 47720
L5360 47700
L5460 47700
L5500 47720
L5530 47740
L5550 47790
L5550 47820
L5530 47860
L5500 47890
L5460 47910
L5360 47910
L5310 47930
L5290 47960
L5270 48010
L5270 48100
L5290 48150
L5310 48170
L5360 48200
L5460 48200
L5500 48170
L5530 48150
L5550 48100
L5550 48010
L5530 47960
L5500 47930
L5460 47910
" />
<path d="M2380 47350
L2690 47350
L2520 47540
L2600 47540
L2640 47560
L2670 47580
L2690 47630
L2690 47750
L2670 47800
L2640 47820
L2600 47850
L2450 47850
L2410 47820
L2380 47800
" />
<path d="M2930 47850
L3030 47850
L3080 47820
L3100 47800
L3150 47730
L3170 47630
L3170 47440
L3150 47390
L3120 47370
L3080 47350
L2980 47350
L2930 47370
L2910 47390
L2890 47440
L2890 47560
L2910 47610
L2930 47630
L2980 47660
L3080 47660
L3120 47630
L3150 47610
L3170 47560
" />
<path d="M18290 48970
L20290 48970
" />
<path d="M16810 48720
L16760 48700
L16690 48700
L16620 48720
L16570 48770
L16550 48820
L16530 48910
L16530 48980
L16550 49080
L16570 49120
L16620 49170
L16690 49200
L16740 49200
L16810 49170
L16830 49150
L16830 48980
L16740 48980
" />
<path d="M17030 48740
L17050 48720
L17100 48700
L17220 48700
L17260 48720
L17290 48740
L17310 48790
L17310 48840
L17290 48910
L17000 49200
L17310 49200
" />
<path d="M17600 48910
L17550 48890
L17530 48860
L17510 48820
L17510 48790
L17530 48740
L17550 48720
L17600 48700
L17700 48700
L17740 48720
L17770 48740
L17790 48790
L17790 48820
L17770 48860
L17740 48890
L17700 48910
L17600 48910
L17550 48930
L17530 48960
L17510 49010
L17510 49100
L17530 49150
L17550 49170
L17600 49200
L17700 49200
L17740 49170
L17770 49150
L17790 49100
L17790 49010
L17770 48960
L17740 48930
L17700 48910
" />
<path d="M19140 48510
L19140 48850
" />
<path d="M19020 48320
L18910 48680
L19210 48680
" />
<path d="M19430 48850
L19530 48850
L19580 48820
L19600 48800
L19650 48730
L19670 48630
L19670 48440
L19650 48390
L19620 48370
L19580 48350
L19480 48350
L19430 48370
L19410 48390
L19390 48440
L19390 48560
L19410 48610
L19430 48630
L19480 48660
L19580 48660
L19620 48630
L19650 48610
L19670 48560
" />
<path d="M18290 38970
L20290 38970
" />
<path d="M16810 38720
L16760 38700
L16690 38700
L16620 38720
L16570 38770
L16550 38820
L16530 38910
L16530 38980
L16550 39080
L16570 39120
L16620 39170
L16690 39200
L16740 39200
L16810 39170
L16830 39150
L16830 38980
L16740 38980
" />
<path d="M17260 38860
L17260 39200
" />
<path d="M17140 38670
L17030 39030
L17330 39030
" />
<path d="M17620 38700
L17670 38700
L17720 38720
L17740 38740
L17770 38790
L17790 38890
L17790 39010
L17770 39100
L17740 39150
L17720 39170
L17670 39200
L17620 39200
L17580 39170
L17550 39150
L17530 39100
L17510 39010
L17510 38890
L17530 38790
L17550 38740
L17580 38720
L17620 38700
" />
<path d="M19170 38350
L18930 38350
L18910 38580
L18930 38560
L18980 38540
L19100 38540
L19140 38560
L19170 38580
L19190 38630
L19190 38750
L19170 38800
L19140 38820
L19100 38850
L18980 38850
L18930 38820
L18910 38800
" />
<path d="M19430 38850
L19530 38850
L19580 38820
L19600 38800
L19650 38730
L19670 38630
L19670 38440
L19650 38390
L19620 38370
L19580 38350
L19480 38350
L19430 38370
L19410 38390
L19390 38440
L19390 38560
L19410 38610
L19430 38630
L19480 38660
L19580 38660
L19620 38630
L19650 38610
L19670 38560
" />
<path d="M18290 28970
L20290 28970
" />
<path d="M16810 28720
L16760 28700
L16690 28700
L16620 28720
L16570 28770
L16550 28820
L16530 28910
L16530 28980
L16550 29080
L16570 29120
L16620 29170
L16690 29200
L16740 29200
L16810 29170
L16830 29150
L16830 28980
L16740 28980
" />
<path d="M17290 28700
L17050 28700
L17030 28930
L17050 28910
L17100 28890
L17220 28890
L17260 28910
L17290 28930
L17310 28980
L17310 29100
L17290 29150
L17260 29170
L17220 29200
L17100 29200
L17050 29170
L17030 29150
" />
<path d="M17510 28740
L17530 28720
L17580 28700
L17700 28700
L17740 28720
L17770 28740
L17790 28790
L17790 28840
L17770 28910
L17480 29200
L17790 29200
" />
<path d="M19140 28350
L19050 28350
L19000 28370
L18980 28390
L18930 28470
L18910 28560
L18910 28750
L18930 28800
L18950 28820
L19000 28850
L19100 28850
L19140 28820
L19170 28800
L19190 28750
L19190 28630
L19170 28580
L19140 28560
L19100 28540
L19000 28540
L18950 28560
L18930 28580
L18910 28630
" />
<path d="M19430 28850
L19530 28850
L19580 28820
L19600 28800
L19650 28730
L19670 28630
L19670 28440
L19650 28390
L19620 28370
L19580 28350
L19480 28350
L19430 28370
L19410 28390
L19390 28440
L19390 28560
L19410 28610
L19430 28630
L19480 28660
L19580 28660
L19620 28630
L19650 28610
L19670 28560
" />
<path d="M18290 18970
L20290 18970
" />
<path d="M16810 18720
L16760 18700
L16690 18700
L16620 18720
L16570 18770
L16550 18820
L16530 18910
L16530 18980
L16550 19080
L16570 19120
L16620 19170
L16690 19200
L16740 19200
L16810 19170
L16830 19150
L16830 18980
L16740 18980
" />
<path d="M17260 18700
L17170 18700
L17120 18720
L17100 18740
L17050 18820
L17030 18910
L17030 19100
L17050 19150
L17070 19170
L17120 19200
L17220 19200
L17260 19170
L17290 19150
L17310 19100
L17310 18980
L17290 18930
L17260 18910
L17220 18890
L17120 18890
L17070 18910
L17050 18930
L17030 18980
" />
<path d="M17740 18700
L17650 18700
L17600 18720
L17580 18740
L17530 18820
L17510 18910
L17510 19100
L17530 19150
L17550 19170
L17600 19200
L17700 19200
L17740 19170
L17770 19150
L17790 19100
L17790 18980
L17770 18930
L17740 18910
L17700 18890
L17600 18890
L17550 18910
L17530 18930
L17510 18980
" />
<path d="M18880 18350
L19210 18350
L19000 18850
" />
<path d="M19430 18850
L19530 18850
L19580 18820
L19600 18800
L19650 18730
L19670 18630
L19670 18440
L19650 18390
L19620 18370
L19580 18350
L19480 18350
L19430 18370
L19410 18390
L19390 18440
L19390 18560
L19410 18610
L19430 18630
L19480 18660
L19580 18660
L19620 18630
L19650 18610
L19670 18560
" />
<path d="M9360 6640
L9360 7130
L9390 7180
L9420 7210
L9480 7240
L9590 7240
L9650 7210
L9680 7180
L9710 7130
L9710 6640
" />
<path d="M10080 7180
L10110 7210
L10080 7240
L10050 7210
L10080 7180
L10080 7240
" />
<path d="M9960 6670
L10020 6640
L10160 6640
L10220 6670
L10250 6730
L10250 6780
L10220 6840
L10190 6870
L10140 6900
L10110 6930
L10080 6980
L10080 7010
" />
<path d="M10640 22680
L10610 22710
L10520 22740
L10460 22740
L10380 22710
L10320 22660
L10290 22600
L10260 22480
L10260 22400
L10290 22280
L10320 22230
L10380 22170
L10460 22140
L10520 22140
L10610 22170
L10640 22200
" />
<path d="M10890 22740
L10890 22140
L11120 22140
L11180 22170
L11210 22200
L11240 22260
L11240 22340
L11210 22400
L11180 22430
L11120 22460
L10890 22460
" />
<path d="M11780 22740
L11490 22740
L11490 22140
" />
<path d="M11980 22740
L11980 22140
L12130 22140
L12210 22170
L12270 22230
L12300 22280
L12330 22400
L12330 22480
L12300 22600
L12270 22660
L12210 22710
L12130 22740
L11980 22740
" />
</g> 
</svg>
